<?xml version="1.0" encoding="utf-8"?>
<!-- Generator: Adobe Illustrator 23.0.5, SVG Export Plug-In . SVG Version: 6.00 Build 0)  -->
<svg version="1.1" id="Capa_1" xmlns="http://www.w3.org/2000/svg" xmlns:xlink="http://www.w3.org/1999/xlink" x="0px" y="0px"
	 viewBox="0 0 50 50" style="enable-background:new 0 0 50 50;" xml:space="preserve">
<style type="text/css">
	.st0{fill:url(#SVGID_1_);}
	.st1{fill:url(#SVGID_2_);}
	.st2{fill:url(#SVGID_3_);}
	.st3{fill:url(#SVGID_4_);}
</style>
<g>
	<linearGradient id="SVGID_1_" gradientUnits="userSpaceOnUse" x1="36.8616" y1="-6.4867" x2="12.7648" y2="45.481">
		<stop  offset="0" style="stop-color:#5798AE"/>
		<stop  offset="1" style="stop-color:#9916BE"/>
	</linearGradient>
	<path class="st0" d="M49.06,18.54c-2.51-4.03-5.03-8.06-7.55-12.09c-0.31-0.5-0.76-0.74-1.35-0.74c-10.18,0-20.35,0-30.53,0
		c-0.59,0-1.04,0.24-1.35,0.74c-2.6,4.18-5.21,8.35-7.81,12.53c0,0.25,0,0.51,0,0.76c0.19,0.27,0.36,0.56,0.57,0.81
		c7.53,9,15.06,18,22.58,26.99c0.82,0.98,1.73,0.99,2.55,0.01c4.33-5.17,8.65-10.34,12.98-15.51c3.23-3.86,6.47-7.73,9.7-11.59
		C49.41,19.78,49.49,19.23,49.06,18.54z M38.16,8.6c-1.04,2.69-2.07,5.35-3.13,8.1c-2.35-2.72-4.63-5.37-6.99-8.1
		C31.45,8.6,34.77,8.6,38.16,8.6z M32.28,17.91c-4.95,0-9.81,0-14.77,0c2.47-2.86,4.9-5.68,7.38-8.57
		C27.37,12.21,29.8,15.03,32.28,17.91z M21.76,8.6c-2.35,2.73-4.64,5.38-6.99,8.11c-1.06-2.75-2.09-5.41-3.14-8.11
		C15,8.6,18.32,8.6,21.76,8.6z M9.23,10.34c1,2.58,1.96,5.06,2.93,7.58c-2.57,0-5.08,0-7.66,0C6.07,15.39,7.62,12.91,9.23,10.34z
		 M20.24,39.05C15.17,33,10.11,26.94,4.96,20.8c2.76,0,5.39,0.01,8.01-0.01c0.34,0,0.38,0.2,0.47,0.42
		c1.59,4.12,3.18,8.23,4.78,12.35c0.68,1.75,1.35,3.49,2.02,5.24C20.27,38.87,20.29,38.94,20.24,39.05z M24.9,42.88
		c-2.87-7.43-5.7-14.72-8.54-22.06c5.71,0,11.36,0,17.07,0C30.59,28.15,27.77,35.44,24.9,42.88z M29.55,39.05
		c-0.03-0.02-0.06-0.03-0.09-0.05c0.51-1.31,1.02-2.63,1.53-3.94c1.78-4.6,3.57-9.21,5.33-13.82c0.14-0.37,0.31-0.46,0.69-0.46
		c2.56,0.02,5.12,0.01,7.81,0.01C39.69,26.93,34.62,32.99,29.55,39.05z M37.64,17.9c0.97-2.51,1.93-4.98,2.92-7.56
		c1.6,2.55,3.15,5.03,4.73,7.56C42.72,17.9,40.21,17.9,37.64,17.9z"/>
	<linearGradient id="SVGID_2_" gradientUnits="userSpaceOnUse" x1="47.9316" y1="-1.3537" x2="23.8349" y2="50.614">
		<stop  offset="0" style="stop-color:#5798AE"/>
		<stop  offset="1" style="stop-color:#9916BE"/>
	</linearGradient>
	<path class="st1" d="M44.79,4.82c0.14,0.77,0.28,1.5,0.42,2.23c0.05,0,0.11,0,0.16,0c0.13-0.74,0.26-1.47,0.4-2.23
		c0.71-0.07,1.46-0.12,2.16-0.41c0-0.04,0.01-0.07,0.01-0.11c-0.73-0.13-1.45-0.26-2.17-0.38c-0.13-0.73-0.27-1.47-0.4-2.2
		c-0.05,0-0.1,0-0.16,0c-0.14,0.74-0.27,1.48-0.41,2.2c-0.7,0.13-1.43,0.26-2.16,0.39c0,0.04,0.01,0.08,0.01,0.11
		C43.35,4.69,44.09,4.76,44.79,4.82z"/>
	<linearGradient id="SVGID_3_" gradientUnits="userSpaceOnUse" x1="15.3415" y1="-16.4653" x2="-8.7553" y2="35.5024">
		<stop  offset="0" style="stop-color:#5798AE"/>
		<stop  offset="1" style="stop-color:#9916BE"/>
	</linearGradient>
	<path class="st2" d="M5.59,6.84c0.04,0,0.07-0.01,0.11-0.01c0.27-0.65,0.31-1.34,0.39-2.04C6.78,4.7,7.48,4.68,8.11,4.4
		c0-0.03,0-0.07,0-0.1C7.44,4.17,6.77,4.05,6.08,3.92C6,3.27,5.98,2.57,5.69,1.94c-0.03,0-0.07,0-0.1,0
		C5.47,2.61,5.35,3.28,5.23,3.97C4.57,4.03,3.89,4.1,3.24,4.35c0,0.04,0,0.08-0.01,0.12C3.91,4.59,4.58,4.7,5.23,4.82
		C5.35,5.48,5.47,6.16,5.59,6.84z"/>
	<linearGradient id="SVGID_4_" gradientUnits="userSpaceOnUse" x1="33.6302" y1="-7.9851" x2="9.5335" y2="43.9827">
		<stop  offset="0" style="stop-color:#5798AE"/>
		<stop  offset="1" style="stop-color:#9916BE"/>
	</linearGradient>
	<path class="st3" d="M10.77,39.25c-0.05,0-0.09,0-0.14,0c-0.11,0.61-0.22,1.21-0.33,1.82c-0.61,0.11-1.22,0.22-1.84,0.34
		c0,0.05,0,0.1,0.01,0.14c0.62,0.11,1.23,0.22,1.83,0.32c0.11,0.61,0.23,1.22,0.34,1.83c0.05,0,0.09,0,0.14-0.01
		c0.09-0.52,0.19-1.03,0.25-1.55c0.03-0.24,0.09-0.32,0.33-0.34c0.52-0.06,1.04-0.17,1.56-0.25c0-0.05,0-0.1,0-0.15
		c-0.61-0.11-1.23-0.23-1.82-0.34C10.99,40.46,10.88,39.85,10.77,39.25z"/>
</g>
</svg>
