<?xml version="1.0" encoding="utf-8"?>
<!-- Generator: Adobe Illustrator 23.0.5, SVG Export Plug-In . SVG Version: 6.00 Build 0)  -->
<svg version="1.1" id="Capa_1" xmlns="http://www.w3.org/2000/svg" xmlns:xlink="http://www.w3.org/1999/xlink" x="0px" y="0px"
	 viewBox="0 0 500 500" style="enable-background:new 0 0 500 500;" xml:space="preserve">
<style type="text/css">
	.st0{fill:#3861FB;}
	.st1{fill:#FFFFFF;}
</style>
<circle class="st0" cx="250" cy="250" r="250"/>
<path class="st1" d="M214.61,300.26c0,0,0,69.02,0,69.05c0,2.49-39.58-0.19-42.06-0.52c-25.37-3.37-51.57-13.07-67.32-34.3
	c-9.52-12.83-15.47-30.01-15.47-46.09c0-41.39-0.05-82.78-0.11-124.17c-0.01-5.96-0.01-11.98,1.35-17.78
	c3.99-17.03,19.45-32.55,33.82-41.72c15.73-10.04,34.28-14.41,52.83-14.41c28.95,0,57.91,0.2,86.86,0.3
	c16.1,0.05,32.2-0.5,48.3-0.51c15.77-0.02,30.01-2.03,45.35,3.21c24.16,8.26,45.56,29,48.93,55.11c3.43,26.55,2.54,34.86,2.54,52.4
	c0,30.12,0.46,37.97,0.46,56.92c0,11.8,1.06,23.7-0.97,35.33c-2.54,14.59-11.49,26.51-21.1,37.34
	c-9.75,10.99-21.62,20.99-36.12,24.78c-10.44,2.73-21.37,2.16-32.03,1.6c-7.74-0.41-15.48-0.82-23.21-1.23
	c-2.84-0.15-5.75-0.29-8.45,0.6c-2.64,0.88-4.86,2.67-7.02,4.43c-20.28,16.56-40.56,33.13-60.84,49.69
	c0.52-15.59,1.03-31.18,1.55-46.77c0.07-2.1-0.11-13.68,0.89-15.53c0.83-1.52,3.11-2.24,4.53-3.07c2.29-1.34,4.58-2.68,6.88-4.01
	c8.67-4.95,17.27-9.56,26.24-13.94c5.45-2.66,11.11-5.23,16.36-8.28c5.78-3.37,11.21-8.27,17.82-9.97c3.73-0.96,8.32-0.5,12.14-0.45
	c4.24,0.06,8.48,0.25,12.72,0.26c17.38,0.05,38.26-5.26,43.94-24.03c3.82-12.6,2.37-25.87,2.1-38.81
	c-0.46-21.89,0.16-43.79,0.16-65.68c-0.12-5.62-0.99-11.45-4.09-16.14c-13.87-20.93-48.96-16.35-70.28-16.37
	c-22.89-0.01-45.78-0.03-68.67-0.04c-18.01-0.01-44.61-4.96-60.42,5.72c-9.34,6.31-13.79,17.8-15.21,28.59
	c-1.86,14.11-2.27,28.38-2.1,42.6c0.17,13.51,0.95,26.99,0.95,40.49c0,0.28,0,0.57,0,0.85c0.13,6.17,0.19,12.35,0.11,18.52
	c-0.03,2.47-0.06,5,0.74,7.34c1.15,3.34,3.89,5.94,6.98,7.64c5.54,3.05,12.47,4.43,18.7,5.16
	C177.08,304.9,214.61,304.38,214.61,300.26z"/>
</svg>
