<?xml version="1.0" encoding="utf-8"?>
<!-- Generator: Adobe Illustrator 23.0.5, SVG Export Plug-In . SVG Version: 6.00 Build 0)  -->
<svg version="1.1" id="Capa_1" xmlns="http://www.w3.org/2000/svg" xmlns:xlink="http://www.w3.org/1999/xlink" x="0px" y="0px"
	 viewBox="0 0 50 50" style="enable-background:new 0 0 50 50;" xml:space="preserve">
<style type="text/css">
	.st0{fill:url(#SVGID_1_);}
	.st1{fill:url(#SVGID_2_);}
	.st2{fill:url(#SVGID_3_);}
	.st3{fill:url(#SVGID_4_);}
	.st4{fill:url(#SVGID_5_);}
	.st5{fill:url(#SVGID_6_);}
	.st6{fill:url(#SVGID_7_);}
	.st7{fill:url(#SVGID_8_);}
	.st8{fill:url(#SVGID_9_);}
	.st9{fill:url(#SVGID_10_);}
	.st10{fill:#F2F2F2;}
	.st11{fill:url(#SVGID_11_);}
</style>
<g>
	<g>
		<linearGradient id="SVGID_1_" gradientUnits="userSpaceOnUse" x1="-37.7957" y1="5.7292" x2="-26.3374" y2="5.7292">
			<stop  offset="0" style="stop-color:#590E9E"/>
			<stop  offset="0.2968" style="stop-color:#901AC4"/>
			<stop  offset="0.5588" style="stop-color:#AF20D9"/>
			<stop  offset="0.8316" style="stop-color:#C324E6"/>
			<stop  offset="1" style="stop-color:#D40EF2"/>
		</linearGradient>
		<polygon class="st0" points="-26.34,5.73 -31.44,4.9 -32.27,0 -33,5 -37.8,5.73 -33,6.46 -32.27,11.46 -31.44,6.56 		"/>
		<linearGradient id="SVGID_2_" gradientUnits="userSpaceOnUse" x1="-69.879" y1="2.2917" x2="-65.1915" y2="2.2917">
			<stop  offset="0" style="stop-color:#590E9E"/>
			<stop  offset="0.2968" style="stop-color:#901AC4"/>
			<stop  offset="0.5588" style="stop-color:#AF20D9"/>
			<stop  offset="0.8316" style="stop-color:#C324E6"/>
			<stop  offset="1" style="stop-color:#D40EF2"/>
		</linearGradient>
		<polygon class="st1" points="-67.59,0 -67.8,1.98 -69.88,2.29 -67.9,2.6 -67.59,4.58 -67.17,2.6 -65.19,2.29 -67.27,1.98 		"/>
	</g>
	<linearGradient id="SVGID_3_" gradientUnits="userSpaceOnUse" x1="-74.879" y1="6.9271" x2="-66.754" y2="6.9271">
		<stop  offset="0" style="stop-color:#590E9E"/>
		<stop  offset="0.2968" style="stop-color:#901AC4"/>
		<stop  offset="0.5588" style="stop-color:#AF20D9"/>
		<stop  offset="0.8316" style="stop-color:#C324E6"/>
		<stop  offset="1" style="stop-color:#D40EF2"/>
	</linearGradient>
	<polygon class="st2" points="-70.4,6.35 -70.92,2.81 -71.44,6.35 -74.88,6.88 -71.44,7.5 -70.92,11.04 -70.4,7.5 -66.75,6.88 	"/>
	<linearGradient id="SVGID_4_" gradientUnits="userSpaceOnUse" x1="-59.4624" y1="15" x2="-43.4207" y2="15">
		<stop  offset="0" style="stop-color:#590E9E"/>
		<stop  offset="0.2968" style="stop-color:#901AC4"/>
		<stop  offset="0.5588" style="stop-color:#AF20D9"/>
		<stop  offset="0.8316" style="stop-color:#C324E6"/>
		<stop  offset="1" style="stop-color:#D40EF2"/>
	</linearGradient>
	<polygon class="st3" points="-43.42,21.04 -49.77,8.96 -52.38,8.96 -59.46,21.04 	"/>
	<linearGradient id="SVGID_5_" gradientUnits="userSpaceOnUse" x1="-49.7749" y1="15" x2="-35.2957" y2="15">
		<stop  offset="0" style="stop-color:#590E9E"/>
		<stop  offset="0.2968" style="stop-color:#901AC4"/>
		<stop  offset="0.5588" style="stop-color:#AF20D9"/>
		<stop  offset="0.8316" style="stop-color:#C324E6"/>
		<stop  offset="1" style="stop-color:#D40EF2"/>
	</linearGradient>
	<polygon class="st4" points="-35.3,8.96 -49.77,8.96 -43.42,21.04 	"/>
	<linearGradient id="SVGID_6_" gradientUnits="userSpaceOnUse" x1="-43.4207" y1="15" x2="-26.5457" y2="15">
		<stop  offset="0" style="stop-color:#590E9E"/>
		<stop  offset="0.2968" style="stop-color:#901AC4"/>
		<stop  offset="0.5588" style="stop-color:#AF20D9"/>
		<stop  offset="0.8316" style="stop-color:#C324E6"/>
		<stop  offset="1" style="stop-color:#D40EF2"/>
	</linearGradient>
	<polygon class="st5" points="-26.55,21.04 -35.19,8.96 -35.3,8.96 -43.42,21.04 	"/>
	<linearGradient id="SVGID_7_" gradientUnits="userSpaceOnUse" x1="-59.4624" y1="35.5209" x2="-43.4207" y2="35.5209">
		<stop  offset="0" style="stop-color:#590E9E"/>
		<stop  offset="0.2968" style="stop-color:#901AC4"/>
		<stop  offset="0.5588" style="stop-color:#AF20D9"/>
		<stop  offset="0.8316" style="stop-color:#C324E6"/>
		<stop  offset="1" style="stop-color:#D40EF2"/>
	</linearGradient>
	<polygon class="st6" points="-51.34,50 -43.42,21.04 -59.46,21.04 	"/>
	<linearGradient id="SVGID_8_" gradientUnits="userSpaceOnUse" x1="-67.379" y1="15" x2="-52.379" y2="15">
		<stop  offset="0" style="stop-color:#590E9E"/>
		<stop  offset="0.2968" style="stop-color:#901AC4"/>
		<stop  offset="0.5588" style="stop-color:#AF20D9"/>
		<stop  offset="0.8316" style="stop-color:#C324E6"/>
		<stop  offset="1" style="stop-color:#D40EF2"/>
	</linearGradient>
	<polygon class="st7" points="-52.38,8.96 -67.38,8.96 -59.46,21.04 	"/>
	<linearGradient id="SVGID_9_" gradientUnits="userSpaceOnUse" x1="-76.129" y1="15" x2="-59.4624" y2="15">
		<stop  offset="0" style="stop-color:#590E9E"/>
		<stop  offset="0.2968" style="stop-color:#901AC4"/>
		<stop  offset="0.5588" style="stop-color:#AF20D9"/>
		<stop  offset="0.8316" style="stop-color:#C324E6"/>
		<stop  offset="1" style="stop-color:#D40EF2"/>
	</linearGradient>
	<polygon class="st8" points="-67.38,8.96 -67.48,8.96 -76.13,21.04 -59.46,21.04 	"/>
	<linearGradient id="SVGID_10_" gradientUnits="userSpaceOnUse" x1="-76.129" y1="35.5209" x2="-26.5457" y2="35.5209">
		<stop  offset="0" style="stop-color:#590E9E"/>
		<stop  offset="0.2968" style="stop-color:#901AC4"/>
		<stop  offset="0.5588" style="stop-color:#AF20D9"/>
		<stop  offset="0.8316" style="stop-color:#C324E6"/>
		<stop  offset="1" style="stop-color:#D40EF2"/>
	</linearGradient>
	<polygon class="st9" points="-26.55,21.04 -51.34,50 -76.13,21.04 -59.46,21.04 -51.34,50 -43.42,21.04 	"/>
	<g>
		<polygon class="st10" points="-43.42,17.81 -43.84,20.52 -46.65,20.94 -43.84,21.35 -43.42,24.27 -43,21.35 -40.19,20.94 
			-43,20.52 		"/>
		<polygon class="st10" points="-63.84,11.77 -64.25,14.48 -67.07,14.9 -64.36,15.31 -63.84,18.23 -63.42,15.42 -60.61,14.9 
			-63.42,14.48 		"/>
	</g>
</g>
<g>
	<g>
		<linearGradient id="SVGID_11_" gradientUnits="userSpaceOnUse" x1="0.1423" y1="26.1539" x2="49.3064" y2="26.1539">
			<stop  offset="0" style="stop-color:#590E9E"/>
			<stop  offset="0.2968" style="stop-color:#901AC4"/>
			<stop  offset="0.5588" style="stop-color:#AF20D9"/>
			<stop  offset="0.8316" style="stop-color:#C324E6"/>
			<stop  offset="1" style="stop-color:#D40EF2"/>
		</linearGradient>
		<path class="st11" d="M49.31,18.47c0-0.04,0-0.09-0.01-0.13c0-0.01,0-0.03,0-0.04c0-0.03-0.01-0.06-0.01-0.09
			c0-0.02-0.01-0.03-0.01-0.05c-0.01-0.03-0.01-0.05-0.02-0.08c0-0.02-0.01-0.03-0.01-0.05c-0.01-0.03-0.02-0.06-0.03-0.09
			c-0.01-0.02-0.02-0.04-0.03-0.06c-0.01-0.03-0.02-0.05-0.04-0.08c-0.01-0.02-0.02-0.03-0.03-0.05c-0.01-0.01-0.02-0.03-0.02-0.04
			L41.41,5.42c-0.01-0.01-0.02-0.03-0.03-0.04c-0.01-0.01-0.01-0.02-0.02-0.03c-0.02-0.03-0.05-0.06-0.07-0.09
			c-0.01-0.01-0.02-0.02-0.03-0.03c-0.02-0.02-0.04-0.04-0.06-0.06c-0.01-0.01-0.02-0.02-0.03-0.03c-0.03-0.03-0.06-0.05-0.08-0.07
			c-0.01-0.01-0.02-0.02-0.03-0.03C41.03,5.02,41.01,5,40.98,4.98c-0.01-0.01-0.02-0.01-0.02-0.02c-0.03-0.02-0.07-0.04-0.1-0.06
			c-0.01,0-0.02-0.01-0.03-0.01c-0.04-0.02-0.08-0.04-0.12-0.05c0,0,0,0-0.01,0c0,0-0.01,0-0.01,0c-0.04-0.01-0.07-0.03-0.11-0.04
			c-0.01,0-0.02,0-0.02-0.01c-0.04-0.01-0.08-0.02-0.12-0.03c-0.01,0-0.03,0-0.04-0.01c-0.03,0-0.06-0.01-0.09-0.01
			c-0.02,0-0.03,0-0.05,0c-0.03,0-0.05,0-0.08,0H9.26c-0.03,0-0.05,0-0.08,0c-0.02,0-0.03,0-0.05,0c-0.03,0-0.06,0.01-0.09,0.01
			c-0.01,0-0.03,0-0.04,0.01C8.97,4.77,8.93,4.78,8.89,4.79c-0.01,0-0.02,0-0.02,0.01C8.83,4.81,8.79,4.82,8.76,4.83
			c0,0-0.01,0-0.01,0c0,0,0,0-0.01,0C8.7,4.86,8.66,4.87,8.62,4.89C8.61,4.9,8.6,4.9,8.59,4.91c-0.04,0.02-0.07,0.04-0.1,0.06
			c-0.01,0-0.02,0.01-0.02,0.02C8.44,5,8.41,5.02,8.39,5.04C8.38,5.05,8.37,5.06,8.36,5.06C8.33,5.09,8.3,5.11,8.27,5.14
			C8.26,5.15,8.25,5.16,8.24,5.17C8.22,5.19,8.2,5.21,8.18,5.23C8.18,5.24,8.17,5.25,8.16,5.26C8.13,5.29,8.11,5.32,8.09,5.35
			C8.08,5.36,8.08,5.37,8.07,5.38C8.06,5.39,8.05,5.4,8.04,5.42L0.36,17.71c-0.01,0.01-0.02,0.03-0.02,0.04
			c-0.01,0.02-0.02,0.03-0.03,0.05c-0.01,0.03-0.03,0.05-0.04,0.08c-0.01,0.02-0.02,0.04-0.03,0.06C0.23,17.97,0.22,18,0.21,18.03
			c-0.01,0.02-0.01,0.03-0.01,0.05c-0.01,0.03-0.01,0.05-0.02,0.08c0,0.02-0.01,0.03-0.01,0.05c-0.01,0.03-0.01,0.06-0.01,0.09
			c0,0.01,0,0.03,0,0.04c0,0.04-0.01,0.09-0.01,0.13c0,0,0,0,0,0c0,0.01,0,0.01,0,0.02c0,0.04,0,0.07,0.01,0.11
			c0,0.02,0,0.03,0,0.05c0,0.03,0.01,0.06,0.01,0.08c0,0.02,0.01,0.03,0.01,0.05c0.01,0.03,0.02,0.07,0.03,0.1
			c0.01,0.02,0.01,0.03,0.02,0.05c0.01,0.03,0.02,0.06,0.03,0.09c0.01,0.02,0.01,0.03,0.02,0.05c0.01,0.02,0.02,0.05,0.03,0.07
			c0.01,0.02,0.02,0.03,0.03,0.05c0.01,0.02,0.03,0.05,0.04,0.07c0.01,0.01,0.02,0.03,0.03,0.04c0.02,0.03,0.04,0.05,0.06,0.08
			c0.01,0.01,0.01,0.02,0.02,0.03c0,0,0,0,0,0L23.6,47.03c0,0,0,0,0.01,0.01l0.01,0.01c0,0,0,0,0,0c0.01,0.01,0.01,0.02,0.02,0.02
			c0.02,0.02,0.04,0.05,0.06,0.07c0.01,0.01,0.01,0.02,0.02,0.02c0,0,0,0,0,0c0,0,0,0,0.01,0c0.03,0.02,0.05,0.05,0.08,0.07
			c0.01,0.01,0.01,0.01,0.02,0.02c0,0,0.01,0.01,0.01,0.01c0,0,0.01,0.01,0.01,0.01c0.02,0.02,0.05,0.04,0.07,0.05
			c0.01,0.01,0.02,0.01,0.03,0.02c0.01,0,0.02,0.01,0.02,0.01c0.02,0.01,0.04,0.02,0.06,0.03c0.01,0.01,0.02,0.01,0.04,0.02
			c0.01,0,0.02,0.01,0.03,0.01c0.01,0,0.01,0.01,0.02,0.01c0.02,0.01,0.05,0.02,0.07,0.03c0,0,0,0,0,0c0,0,0.01,0,0.01,0
			c0.01,0,0.02,0.01,0.03,0.01c0.01,0,0.02,0.01,0.03,0.01c0.02,0,0.03,0.01,0.05,0.01c0.01,0,0.03,0.01,0.04,0.01
			c0.02,0,0.03,0.01,0.05,0.01c0,0,0,0,0,0c0.01,0,0.02,0,0.03,0c0.01,0,0.03,0.01,0.04,0.01c0.02,0,0.05,0.01,0.07,0.01
			c0.01,0,0.01,0,0.02,0c0.01,0,0.02,0,0.03,0c0.04,0,0.08,0.01,0.12,0.01c0,0,0,0,0,0c0,0,0,0,0,0s0,0,0,0c0,0,0,0,0,0
			c0.04,0,0.08,0,0.12-0.01c0.01,0,0.02,0,0.03,0c0.01,0,0.01,0,0.02,0c0.02,0,0.04-0.01,0.07-0.01c0.02,0,0.03-0.01,0.05-0.01
			c0.01,0,0.02,0,0.03,0c0,0,0,0,0,0c0.02,0,0.03-0.01,0.05-0.01c0.01,0,0.03-0.01,0.04-0.01c0.02,0,0.03-0.01,0.05-0.01
			c0.01,0,0.02-0.01,0.03-0.01c0.01,0,0.02-0.01,0.03-0.01c0,0,0.01,0,0.01,0c0,0,0,0,0,0c0.02-0.01,0.05-0.02,0.07-0.03
			c0.01,0,0.01-0.01,0.02-0.01c0.01,0,0.02-0.01,0.03-0.01c0.01-0.01,0.03-0.01,0.04-0.02c0.02-0.01,0.04-0.02,0.06-0.03
			c0.01,0,0.02-0.01,0.02-0.01c0.01-0.01,0.02-0.01,0.03-0.02c0.02-0.02,0.05-0.03,0.07-0.05c0.01,0,0.01-0.01,0.02-0.01
			c0,0,0.01-0.01,0.01-0.01c0.01-0.01,0.01-0.01,0.02-0.02c0.03-0.02,0.05-0.04,0.08-0.07c0,0,0,0,0.01-0.01c0,0,0,0,0,0
			c0.01-0.01,0.01-0.02,0.02-0.02c0.02-0.02,0.04-0.04,0.06-0.07c0.01-0.01,0.01-0.02,0.02-0.02c0,0,0,0,0,0l0.01-0.02
			c0,0,0,0,0.01-0.01L48.97,19.4c0,0,0,0,0,0c0.01-0.01,0.01-0.02,0.02-0.03c0.02-0.03,0.04-0.05,0.06-0.08
			c0.01-0.01,0.02-0.03,0.03-0.04c0.01-0.02,0.03-0.05,0.04-0.07c0.01-0.02,0.02-0.03,0.03-0.05c0.01-0.02,0.02-0.05,0.03-0.07
			c0.01-0.02,0.01-0.03,0.02-0.05c0.01-0.03,0.02-0.06,0.03-0.09c0.01-0.02,0.01-0.03,0.02-0.05c0.01-0.03,0.02-0.06,0.03-0.1
			c0-0.02,0.01-0.03,0.01-0.05c0.01-0.03,0.01-0.06,0.01-0.08c0-0.02,0-0.03,0-0.05c0-0.04,0-0.07,0.01-0.11
			C49.31,18.48,49.31,18.48,49.31,18.47C49.31,18.47,49.31,18.47,49.31,18.47z M38.08,7.62l-3.16,8.17l-7.05-8.17H38.08z
			 M32.18,17.03H17.27l7.46-8.65L32.18,17.03z M21.58,7.62l-7.05,8.17l-3.16-8.17H21.58z M8.96,9.39l2.96,7.65H4.18L8.96,9.39z
			 M4.67,19.91h8.37l7.2,18.6L4.67,19.91z M24.72,42.14l-8.6-22.22h17.2L24.72,42.14z M29.21,38.52l7.2-18.6h8.37L29.21,38.52z
			 M37.53,17.03l2.96-7.65l4.78,7.65H37.53z"/>
	</g>
</g>
</svg>
