<?xml version="1.0" encoding="utf-8"?>
<!-- Generator: Adobe Illustrator 23.0.5, SVG Export Plug-In . SVG Version: 6.00 Build 0)  -->
<svg version="1.1" id="Capa_1" xmlns="http://www.w3.org/2000/svg" xmlns:xlink="http://www.w3.org/1999/xlink" x="0px" y="0px"
	 viewBox="0 0 75 75" style="enable-background:new 0 0 75 75;" xml:space="preserve">
<style type="text/css">
	.st0{enable-background:new    ;}
	.st1{fill:#F7F7F9;}
	.st2{fill:#19192C;}
	.st3{fill:#FBFBFD;}
	.st4{fill:#EECE34;}
</style>
<g>
	<g class="st0">
		<path class="st1" d="M36.06,20.62h-1.61l-0.37,0.74h-1.33l2.45-4.54h1.46l0.85,4.54h-1.33L36.06,20.62z M35.69,18.19l-0.75,1.47
			h0.97L35.69,18.19z"/>
		<path class="st1" d="M41.8,17.7c0.86,0,1.42,0.7,1.22,1.85c-0.21,1.15-1.01,1.85-1.87,1.85c-0.51,0-0.82-0.23-0.96-0.55
			l-0.39,2.23h-1.26l0.94-5.34h1.26l-0.09,0.5C40.89,17.93,41.3,17.7,41.8,17.7z M41.21,18.81c-0.35,0-0.71,0.26-0.79,0.75
			c-0.08,0.49,0.17,0.75,0.52,0.75c0.36,0,0.71-0.27,0.79-0.75C41.82,19.06,41.56,18.81,41.21,18.81z"/>
		<path class="st1" d="M47.83,21.36h-1.26l0.09-0.52c-0.26,0.31-0.68,0.55-1.19,0.55c-0.84,0-1.26-0.59-1.09-1.55l0.37-2.1h1.26
			l-0.34,1.94c-0.08,0.42,0.12,0.66,0.48,0.66c0.37,0,0.64-0.25,0.71-0.63l0.35-1.97h1.27L47.83,21.36z"/>
		<path class="st1" d="M51.1,21.41c-1.07,0-1.71-0.7-1.51-1.85c0.21-1.15,1.08-1.85,2.16-1.85c1.07,0,1.7,0.69,1.51,1.8
			c-0.02,0.1-0.04,0.2-0.08,0.3h-2.39c-0.04,0.42,0.15,0.59,0.43,0.59c0.25,0,0.41-0.14,0.5-0.28h1.34
			C52.78,20.85,52,21.41,51.1,21.41z M50.9,19.24h1.12c0.06-0.36-0.16-0.53-0.45-0.53C51.25,18.7,51,18.88,50.9,19.24z"/>
		<path class="st1" d="M55.94,21.41c-0.98,0-1.67-0.51-1.54-1.26h1.22c-0.01,0.24,0.16,0.37,0.43,0.37c0.21,0,0.37-0.09,0.37-0.23
			c0-0.46-1.78-0.27-1.78-1.46c0-0.64,0.61-1.13,1.53-1.13c1.01,0,1.58,0.55,1.54,1.26h-1.13c0.01-0.23-0.14-0.37-0.42-0.37
			c-0.19,0-0.34,0.09-0.34,0.23c0,0.46,1.8,0.32,1.8,1.44C57.61,21,56.9,21.41,55.94,21.41z"/>
		<path class="st1" d="M59.6,18.8h-0.44l0.19-1.05h0.44l0.15-0.88h1.27l-0.15,0.88h0.65l-0.19,1.05h-0.65l-0.22,1.21
			c-0.03,0.19,0.04,0.28,0.26,0.28h0.37l-0.19,1.08h-0.55c-0.8,0-1.32-0.33-1.14-1.37L59.6,18.8z"/>
		<path class="st1" d="M64.56,17.7c0.51,0,0.84,0.23,0.96,0.55l0.09-0.5h1.26l-0.64,3.61h-1.26l0.09-0.5
			c-0.24,0.32-0.65,0.55-1.16,0.55c-0.86,0-1.41-0.7-1.21-1.85C62.9,18.4,63.7,17.7,64.56,17.7z M64.77,18.81
			c-0.36,0-0.71,0.26-0.79,0.75c-0.09,0.48,0.17,0.75,0.52,0.75c0.36,0,0.71-0.26,0.79-0.75C65.38,19.07,65.13,18.81,64.77,18.81z"
			/>
		<path class="st1" d="M69.45,21.41c-0.98,0-1.67-0.51-1.54-1.26h1.22c-0.01,0.24,0.16,0.37,0.43,0.37c0.21,0,0.37-0.09,0.37-0.23
			c0-0.46-1.78-0.27-1.78-1.46c0-0.64,0.61-1.13,1.53-1.13c1.01,0,1.58,0.55,1.54,1.26h-1.13c0.01-0.23-0.14-0.37-0.42-0.37
			c-0.19,0-0.34,0.09-0.34,0.23c0,0.46,1.8,0.32,1.8,1.44C71.12,21,70.41,21.41,69.45,21.41z"/>
	</g>
	<path class="st2" d="M42.31,50.36c0.58,0.74,0.86,1.6,0.86,2.57c0,1.45-0.48,2.57-1.44,3.36c-0.96,0.79-2.33,1.19-4.13,1.19h-8.25
		V40.78h8.06c1.68,0,3,0.37,3.95,1.11c0.95,0.74,1.42,1.81,1.42,3.21c0,0.99-0.26,1.82-0.78,2.49c-0.52,0.67-1.2,1.11-2.05,1.31
		C40.96,49.13,41.74,49.62,42.31,50.36z M34,47.46h2.33c1.16,0,1.74-0.49,1.74-1.46c0-1.01-0.59-1.51-1.77-1.51H34L34,47.46
		L34,47.46z M38.43,52.24c0-1.04-0.6-1.55-1.81-1.55H34v3.06h2.62C37.83,53.75,38.43,53.25,38.43,52.24z"/>
	<path class="st2" d="M58.09,51.7h-8.74c0.08,1.5,0.73,2.24,1.96,2.24c0.46,0,0.83-0.11,1.13-0.33c0.3-0.22,0.5-0.51,0.61-0.87h4.9
		c-0.17,0.93-0.56,1.77-1.15,2.51s-1.35,1.33-2.26,1.75c-0.91,0.42-1.91,0.64-2.99,0.64c-1.32,0-2.49-0.27-3.5-0.81
		c-1.01-0.54-1.8-1.33-2.37-2.36c-0.57-1.03-0.85-2.24-0.85-3.62c0-1.38,0.28-2.59,0.85-3.61c0.56-1.02,1.36-1.8,2.38-2.34
		c1.02-0.54,2.19-0.81,3.49-0.81c1.32,0,2.48,0.27,3.49,0.8s1.79,1.3,2.34,2.29c0.56,0.99,0.84,2.14,0.84,3.44
		C58.21,50.95,58.17,51.31,58.09,51.7z M52.95,48.23c-0.38-0.35-0.85-0.52-1.41-0.52c-0.61,0-1.11,0.17-1.5,0.52
		c-0.39,0.35-0.61,0.86-0.67,1.53h4.13C53.51,49.09,53.33,48.58,52.95,48.23z"/>
	<path class="st2" d="M68.32,53.52v3.96h-1.91c-1.62,0-2.88-0.4-3.8-1.2c-0.91-0.8-1.37-2.13-1.37-3.98v-4.17h-1.69v-3.87h1.7v-3.21
		h4.64v3.21h2.38v3.87H65.9v4.27c0,0.41,0.09,0.7,0.27,0.87c0.18,0.17,0.48,0.26,0.91,0.26H68.32z"/>
	<path class="st3" d="M41.44,50.18c0.58,0.74,0.86,1.6,0.86,2.57c0,1.45-0.48,2.57-1.44,3.36c-0.96,0.79-2.33,1.19-4.13,1.19h-8.25
		V40.61h8.06c1.68,0,3,0.37,3.95,1.11c0.95,0.74,1.42,1.81,1.42,3.21c0,0.99-0.26,1.82-0.78,2.49s-1.2,1.11-2.05,1.31
		C40.08,48.95,40.86,49.44,41.44,50.18z M33.13,47.28h2.33c1.16,0,1.74-0.49,1.74-1.46c0-1.01-0.59-1.51-1.77-1.51h-2.31
		L33.13,47.28L33.13,47.28z M37.56,52.07c0-1.04-0.6-1.55-1.81-1.55h-2.62v3.06h2.62C36.96,53.58,37.56,53.07,37.56,52.07z"/>
	<path class="st3" d="M57.22,51.52h-8.74c0.08,1.5,0.73,2.24,1.96,2.24c0.46,0,0.83-0.11,1.13-0.33c0.3-0.22,0.5-0.51,0.61-0.87h4.9
		c-0.17,0.93-0.56,1.77-1.15,2.51c-0.6,0.75-1.35,1.33-2.26,1.75c-0.91,0.42-1.91,0.64-2.99,0.64c-1.32,0-2.49-0.27-3.5-0.81
		c-1.01-0.54-1.8-1.33-2.37-2.36c-0.57-1.03-0.85-2.24-0.85-3.62c0-1.38,0.28-2.59,0.85-3.61c0.56-1.02,1.36-1.8,2.38-2.34
		c1.02-0.54,2.19-0.81,3.49-0.81c1.32,0,2.48,0.27,3.49,0.8c1.01,0.53,1.79,1.3,2.34,2.29c0.56,0.99,0.84,2.14,0.84,3.44
		C57.34,50.77,57.3,51.13,57.22,51.52z M52.08,48.06c-0.38-0.35-0.85-0.52-1.41-0.52c-0.61,0-1.11,0.17-1.5,0.52
		c-0.39,0.35-0.61,0.86-0.67,1.53h4.13C52.64,48.92,52.46,48.4,52.08,48.06z"/>
	<path class="st3" d="M67.45,53.34v3.96h-1.91c-1.62,0-2.88-0.4-3.8-1.2c-0.91-0.8-1.37-2.13-1.37-3.98v-4.17h-1.7v-3.87h1.7v-3.21
		h4.64v3.21h2.38v3.87h-2.38v4.27c0,0.41,0.09,0.7,0.27,0.87c0.18,0.17,0.48,0.26,0.91,0.26H67.45z"/>
	<path class="st4" d="M68.51,59.43l-0.93-7.63c-0.03-0.21,0.21-0.36,0.39-0.23l6.39,4.4l-2.56,0.49l1.47,2.41
		c0.12,0.19,0.06,0.45-0.14,0.56l-0.95,0.56c-0.19,0.11-0.44,0.05-0.55-0.14l-1.46-2.36L68.51,59.43z"/>
	<path class="st4" d="M16.71,51.22c-0.51,0-0.87-0.21-1.09-0.63c-0.22-0.42-0.32-0.98-0.32-1.66c0-1.53,0.41-3.36,1.22-5.5
		c0.53-1.4,1.11-2.59,1.74-3.56c-0.27,0.13-0.54,0.26-0.81,0.38c-1.35,0.65-2.72,1.27-4.09,1.85c-1.37,0.58-2.75,1.06-4.13,1.45
		c-1.38,0.38-2.76,0.58-4.15,0.58c-0.72,0-1.43-0.09-2.13-0.25s-1.28-0.46-1.74-0.87c-0.46-0.42-0.69-0.97-0.69-1.67
		c0-0.32,0.06-0.67,0.17-1.05c0.75-2.3,2.28-4.76,4.59-7.4c2.31-2.64,4.99-5.15,8.02-7.53s6.02-4.34,8.95-5.88
		c2.93-1.54,5.32-2.31,7.17-2.31c0.59,0,1.01,0.14,1.25,0.43c0.25,0.29,0.37,0.67,0.37,1.15c0,0.6-0.16,1.32-0.48,2.15
		c-0.75,1.85-1.76,3.69-3.03,5.53c-1.28,1.84-2.21,3.03-2.8,3.57c-0.1,0.1-0.19,0.16-0.29,0.19c-0.1,0.03-0.21,0.05-0.33,0.05
		c-0.17,0-0.37-0.04-0.59-0.13c-0.22-0.09-0.41-0.2-0.58-0.32c-0.17-0.13-0.25-0.26-0.25-0.41c0-0.01,0.01-0.04,0.02-0.07
		c0.03-0.06,0.08-0.12,0.14-0.17c1.47-1.13,2.88-2.72,4.24-4.77c1.36-2.05,2.34-3.97,2.93-5.77c0.05-0.14,0.07-0.28,0.07-0.41
		c0-0.11-0.03-0.21-0.09-0.29c-0.06-0.08-0.15-0.12-0.27-0.12c-1.58,0-3.6,0.69-6.06,2.08s-4.98,3.16-7.54,5.31
		c-2.57,2.15-4.86,4.42-6.89,6.8s-3.45,4.62-4.28,6.71C4.86,39,4.73,39.4,4.61,39.86c-0.12,0.46-0.18,0.91-0.18,1.34
		c0,0.48,0.11,0.89,0.33,1.24c0.22,0.35,0.65,0.53,1.27,0.53c1.08,0,2.25-0.17,3.49-0.5c1.24-0.33,2.48-0.75,3.72-1.25
		c1.24-0.5,2.41-1.02,3.53-1.54c0.03-0.01,0.06-0.03,0.07-0.05c0.6-0.26,1.33-0.65,2.17-1.19c0.27-0.4,0.53-0.81,0.79-1.22
		c0.78-1.37,1.96-2.94,3.54-4.71c-0.94,0.46-2.06,0.98-3.36,1.54c-1.3,0.57-2.6,1.06-3.9,1.5s-2.37,0.65-3.22,0.65
		c-0.1,0-0.23-0.01-0.42-0.04c-0.18-0.02-0.35-0.06-0.49-0.12c-0.14-0.06-0.22-0.15-0.22-0.27v-0.07l0.02-0.05
		c0.06-0.13,0.16-0.22,0.3-0.27c0.13-0.06,0.25-0.09,0.35-0.09c0.24,0,0.35,0.09,0.33,0.26c0,0.05-0.01,0.1-0.02,0.17
		c0.64,0,1.58-0.22,2.83-0.65c1.25-0.43,2.5-0.91,3.75-1.45c1.25-0.53,2.24-0.99,2.95-1.38c0.42-0.22,0.81-0.44,1.17-0.65
		c0.43-0.26,0.81-0.47,1.15-0.63c0.33-0.17,0.6-0.25,0.79-0.25c0.19,0,0.3,0.13,0.33,0.38c0,0.16-0.05,0.37-0.14,0.65
		c-0.72,0.75-1.56,1.83-2.53,3.24c-0.97,1.41-1.94,2.97-2.89,4.69c-0.96,1.71-1.76,3.41-2.4,5.09c-0.65,1.68-0.97,3.15-0.97,4.41
		c0,0.48,0.06,0.91,0.17,1.29c0.01,0.06,0.05,0.13,0.1,0.22c0.06,0.11,0.1,0.22,0.1,0.33v0.07c-0.01,0.03-0.06,0.06-0.12,0.09
		c-0.06,0.02-0.12,0.04-0.18,0.05C16.79,51.21,16.74,51.22,16.71,51.22z"/>
	<path class="st4" d="M28.42,37.97c-0.73,0-1.13-0.31-1.19-0.93c0-0.13,0.02-0.26,0.07-0.38c0.05-0.13,0.11-0.25,0.19-0.36
		c-0.27-0.14-0.48-0.29-0.62-0.43s-0.22-0.33-0.22-0.58c0-0.26,0.07-0.58,0.22-0.96c0.4-0.97,0.91-1.67,1.54-2.09
		c0.63-0.42,1.25-0.67,1.85-0.75c0.6-0.08,1.04-0.12,1.29-0.12c0.51,0,0.87,0.14,1.09,0.42c0.22,0.28,0.32,0.63,0.32,1.04
		c0,0.46-0.1,0.96-0.31,1.48c-0.22,0.58-0.53,1.11-0.91,1.6c0.6,0,1.23-0.18,1.88-0.54s1.22-0.78,1.73-1.25
		c0.03-0.03,0.09-0.06,0.16-0.09c0.07-0.02,0.14-0.04,0.2-0.04c0.06,0,0.12,0.01,0.17,0.04c0.05,0.02,0.07,0.07,0.07,0.13
		c0,0.03-0.01,0.06-0.02,0.1c-0.08,0.17-0.37,0.43-0.88,0.76c-0.51,0.33-1.11,0.65-1.81,0.95c-0.69,0.3-1.34,0.44-1.93,0.44
		c-0.45,0.43-0.9,0.8-1.36,1.1C29.49,37.82,28.98,37.97,28.42,37.97z M28.62,37.28c0.33,0,0.76-0.26,1.27-0.76l-0.6,0.02
		c-0.33,0-0.61-0.03-0.84-0.1c-0.11,0.14-0.19,0.27-0.24,0.38c-0.01,0.05-0.02,0.09-0.02,0.12c0,0.1,0.04,0.17,0.11,0.24
		C28.36,37.25,28.47,37.28,28.62,37.28z M30.41,35.84c0.22-0.22,0.52-0.59,0.87-1.1c0.36-0.51,0.64-1.02,0.85-1.53
		c0.1-0.26,0.14-0.49,0.14-0.69c0-0.37-0.22-0.56-0.67-0.6c-0.35,0-0.8,0.26-1.34,0.76c-0.54,0.51-0.93,1.06-1.17,1.65
		c-0.08,0.21-0.12,0.41-0.12,0.6c0,0.26,0.11,0.47,0.32,0.65C29.51,35.76,29.88,35.84,30.41,35.84z"/>
	<path class="st4" d="M34.93,42.99c-0.42,0-0.71-0.17-0.88-0.5c-0.17-0.33-0.26-0.78-0.26-1.34c0-1.18,0.27-2.64,0.8-4.39
		c0.53-1.74,1.06-3.29,1.59-4.63c0.38-0.97,0.89-2.04,1.53-3.22c0.64-1.17,1.19-2.13,1.65-2.88c0.29-0.46,0.68-0.99,1.18-1.6
		c0.5-0.6,1.05-1.14,1.65-1.61c0.6-0.47,1.16-0.7,1.68-0.7c0.3,0,0.52,0.09,0.65,0.27c0.13,0.18,0.19,0.41,0.19,0.68
		c0,0.29-0.06,0.6-0.19,0.93c-0.72,1.9-1.77,3.87-3.17,5.91c-1.39,2.04-2.79,3.72-4.2,5.05l-0.07,0.22
		c-0.06,0.16-0.16,0.4-0.29,0.72c-0.35,0.85-0.75,1.9-1.21,3.16c-0.45,1.26-0.68,2.21-0.68,2.87c0,0.35,0.11,0.54,0.33,0.58
		c0.56,0,1.22-0.29,1.97-0.87c0.76-0.58,1.52-1.29,2.31-2.11c0.78-0.83,1.51-1.66,2.19-2.49c0.68-0.83,1.22-1.52,1.64-2.08
		c0.19-0.24,0.34-0.43,0.45-0.58c0.17-0.19,0.36-0.29,0.55-0.29c0.06,0,0.12,0.01,0.18,0.05c0.06,0.03,0.09,0.1,0.09,0.19
		c0,0.05-0.01,0.11-0.05,0.19c-0.03,0.1-0.1,0.22-0.19,0.36c-0.49,0.6-1.15,1.35-1.96,2.25c-0.81,0.89-1.68,1.79-2.62,2.69
		c-0.93,0.9-1.83,1.66-2.7,2.27C36.22,42.68,35.5,42.99,34.93,42.99z M37.68,33.6c0.48-0.32,1.13-1.04,1.96-2.17
		c0.83-1.13,1.63-2.35,2.4-3.65c0.77-1.3,1.33-2.37,1.66-3.22c0.16-0.43,0.24-0.76,0.24-0.98c0-0.21-0.08-0.32-0.24-0.33
		c-0.21,0-0.61,0.46-1.21,1.38c-0.6,0.92-1.24,2-1.93,3.25c-0.69,1.25-1.3,2.42-1.84,3.49C38.18,32.44,37.84,33.18,37.68,33.6z"/>
	<path class="st4" d="M46.74,42.59c-0.48,0-0.71-0.26-0.69-0.79c0-0.4,0.12-0.93,0.36-1.6c0.13-0.37,0.29-0.77,0.48-1.22
		c0.01-0.06,0.04-0.13,0.07-0.19c0.22-0.53,0.58-1.25,1.05-2.17c0.48-0.92,0.99-1.9,1.55-2.94c1.02-1.88,1.76-3.32,2.22-4.3
		c-0.35,0.58-0.81,1.29-1.39,2.14c-0.58,0.85-1.22,1.71-1.93,2.56c-0.71,0.85-1.43,1.57-2.16,2.15c-0.73,0.58-1.42,0.87-2.06,0.87
		c-0.27,0-0.53-0.07-0.78-0.22c-0.25-0.14-0.37-0.42-0.37-0.81c0-0.17,0.03-0.37,0.1-0.6l0.1-0.26c0.32-0.88,0.77-1.52,1.35-1.93
		c0.58-0.41,1.16-0.61,1.73-0.61c0.46,0,0.84,0.09,1.14,0.27c0.29,0.18,0.5,0.39,0.63,0.61c1.32-1.48,2.43-3.08,3.32-4.79
		c0.89-1.71,1.5-2.98,1.82-3.81c0.05-0.11,0.13-0.18,0.24-0.2c0.11-0.02,0.22-0.04,0.33-0.04c0.14,0,0.26,0.02,0.36,0.06
		c0.1,0.04,0.14,0.14,0.14,0.3c0,0.08-0.02,0.19-0.07,0.33l-0.22,0.72c-0.6,1.61-1.56,3.7-2.87,6.26c-1.32,2.55-2.3,4.66-2.92,6.31
		c-0.05,0.11-0.09,0.25-0.13,0.42c-0.04,0.17-0.06,0.33-0.06,0.49c0,0.14,0.03,0.26,0.1,0.36c0.06,0.1,0.17,0.14,0.33,0.14
		c0.38,0,0.91-0.38,1.58-1.15c0.67-0.76,1.35-1.6,2.03-2.51c0.51-0.67,0.97-1.25,1.39-1.74c0.42-0.49,0.74-0.8,0.98-0.91h0.02
		c0.05,0,0.09,0.01,0.12,0.05c0.03,0.03,0.05,0.09,0.05,0.17v0.07l-0.07,0.12c-0.13,0.19-0.52,0.71-1.16,1.57
		c-0.65,0.85-1.41,1.81-2.28,2.86c-0.88,1.05-1.73,1.98-2.56,2.77C47.8,42.19,47.17,42.59,46.74,42.59z M44.35,36.56
		c0.19,0,0.54-0.17,1.05-0.5c0.51-0.33,0.99-0.7,1.45-1.09c0.45-0.39,0.73-0.7,0.82-0.92c-0.1-0.16-0.24-0.24-0.43-0.24
		c-0.3,0-0.68,0.16-1.11,0.47c-0.44,0.31-0.84,0.66-1.19,1.04c-0.36,0.38-0.59,0.7-0.68,0.96c-0.01,0.03-0.02,0.06-0.02,0.1
		C44.23,36.47,44.26,36.53,44.35,36.56z"/>
	<path class="st4" d="M55.72,37.54h-0.17c-0.53,0-0.99-0.12-1.4-0.37s-0.61-0.62-0.61-1.11c0-0.21,0.05-0.43,0.14-0.67
		c0.29-0.67,0.81-1.33,1.58-1.98s1.52-1.05,2.27-1.19c0.05,0,0.1,0,0.17-0.01s0.12-0.02,0.17-0.04h0.17c0.35,0,0.64,0.06,0.86,0.19
		c0.22,0.13,0.33,0.31,0.33,0.55c0,0.1-0.01,0.2-0.05,0.31c-0.21,0.48-0.6,0.91-1.19,1.28c-0.59,0.37-1.14,0.56-1.65,0.56
		c-0.33,0-0.6-0.11-0.81-0.33c-0.14,0.19-0.26,0.42-0.36,0.69C55.06,35.69,55,35.94,55,36.18c0,0.22,0.07,0.42,0.2,0.58
		c0.13,0.16,0.36,0.24,0.68,0.24h0.12c2.06-0.16,3.67-1.08,4.83-2.75c0.06-0.1,0.13-0.16,0.22-0.19c0.08-0.03,0.17-0.06,0.26-0.07
		c0.19,0,0.34,0.06,0.45,0.17c-0.27,0.64-0.96,1.33-2.08,2.07C58.58,36.96,57.26,37.4,55.72,37.54z M55.77,34.41
		c0.19,0.17,0.41,0.26,0.65,0.26c0.27,0,0.53-0.11,0.79-0.33c0.26-0.22,0.45-0.55,0.6-0.98c0.01-0.05,0.02-0.09,0.02-0.12
		c0-0.08-0.05-0.12-0.14-0.12c-0.14,0-0.35,0.07-0.62,0.2c-0.27,0.14-0.53,0.3-0.78,0.5C56.04,34.03,55.87,34.22,55.77,34.41z"/>
	<path class="st4" d="M73.51,34.29c-0.42,0.59-1.06,1.44-1.93,2.53c-0.87,1.1-1.84,2.24-2.92,3.43c-1.08,1.19-2.16,2.2-3.24,3.05
		s-2.04,1.27-2.87,1.27c-0.14,0-0.29-0.01-0.43-0.05c-0.19-0.03-0.34-0.12-0.45-0.26c-0.11-0.14-0.17-0.36-0.17-0.65
		c0-0.4,0.13-0.95,0.38-1.65c0.67-1.55,1.58-3.09,2.75-4.64c1.13-1.51,2-2.98,2.6-4.4c0.03-0.08,0.05-0.14,0.05-0.19
		c0-0.1-0.06-0.14-0.17-0.14c-0.51,0-1.16,0.38-1.95,1.15c-0.79,0.76-1.55,1.56-2.28,2.39c-0.42,0.46-0.79,0.86-1.11,1.19
		c-0.33,0.33-0.58,0.54-0.75,0.62c-0.16,0.06-0.3,0.1-0.43,0.1c-0.26,0-0.43-0.11-0.54-0.32c-0.1-0.22-0.16-0.47-0.16-0.75
		c0-0.33,0.06-0.65,0.17-0.96c0.06-0.17,0.19-0.43,0.37-0.78c0.18-0.34,0.38-0.67,0.6-0.99c0.22-0.32,0.41-0.53,0.59-0.62
		c0.53-0.22,0.93-0.33,1.22-0.33c0.35,0,0.53,0.11,0.53,0.33c0,0.05-0.01,0.1-0.02,0.14l-0.05,0.1c-0.4,0.46-0.8,1-1.19,1.61
		c-0.4,0.61-0.68,1.11-0.84,1.5c-0.06,0.13-0.1,0.23-0.1,0.31s0.04,0.12,0.12,0.12c0.06,0,0.21-0.13,0.44-0.38
		c0.23-0.26,0.52-0.59,0.87-1.01c0.78-0.94,1.67-1.91,2.68-2.92c1.01-1.01,1.89-1.56,2.65-1.67c0.51,0,0.87,0.09,1.09,0.27
		c0.22,0.18,0.32,0.44,0.32,0.78c0,0.38-0.12,0.87-0.36,1.46c-0.29,0.73-0.73,1.55-1.31,2.45c-0.59,0.9-1.21,1.8-1.87,2.69
		c-0.65,0.91-1.22,1.74-1.71,2.49s-0.73,1.31-0.73,1.67c0,0.26,0.17,0.39,0.5,0.41c0.3,0,1.01-0.52,2.11-1.57
		c1.11-1.04,2.29-2.27,3.54-3.67c1.25-1.4,2.3-2.71,3.14-3.92c0.08-0.11,0.2-0.2,0.35-0.27c0.15-0.07,0.28-0.11,0.39-0.11
		c0.06,0,0.1,0.02,0.12,0.07c0,0.01-0.01,0.04-0.02,0.07L73.51,34.29L73.51,34.29z"/>
	<path class="st4" d="M16.71,51.22c-0.51,0-0.87-0.21-1.09-0.63c-0.22-0.42-0.32-0.98-0.32-1.66c0-1.53,0.41-3.36,1.22-5.5
		c0.53-1.4,1.11-2.59,1.74-3.56c-0.27,0.13-0.54,0.26-0.81,0.38c-1.35,0.65-2.72,1.27-4.09,1.85c-1.37,0.58-2.75,1.06-4.13,1.45
		c-1.38,0.38-2.76,0.58-4.15,0.58c-0.72,0-1.43-0.09-2.13-0.25s-1.28-0.46-1.74-0.87c-0.46-0.42-0.69-0.97-0.69-1.67
		c0-0.32,0.06-0.67,0.17-1.05c0.75-2.3,2.28-4.76,4.59-7.4c2.31-2.64,4.99-5.15,8.02-7.53s6.02-4.34,8.95-5.88
		c2.93-1.54,5.32-2.31,7.17-2.31c0.59,0,1.01,0.14,1.25,0.43c0.25,0.29,0.37,0.67,0.37,1.15c0,0.6-0.16,1.32-0.48,2.15
		c-0.75,1.85-1.76,3.69-3.03,5.53c-1.28,1.84-2.21,3.03-2.8,3.57c-0.1,0.1-0.19,0.16-0.29,0.19c-0.1,0.03-0.21,0.05-0.33,0.05
		c-0.17,0-0.37-0.04-0.59-0.13c-0.22-0.09-0.41-0.2-0.58-0.32c-0.17-0.13-0.25-0.26-0.25-0.41c0-0.01,0.01-0.04,0.02-0.07
		c0.03-0.06,0.08-0.12,0.14-0.17c1.47-1.13,2.88-2.72,4.24-4.77c1.36-2.05,2.34-3.97,2.93-5.77c0.05-0.14,0.07-0.28,0.07-0.41
		c0-0.11-0.03-0.21-0.09-0.29c-0.06-0.08-0.15-0.12-0.27-0.12c-1.58,0-3.6,0.69-6.06,2.08s-4.98,3.16-7.54,5.31
		c-2.57,2.15-4.86,4.42-6.89,6.8s-3.45,4.62-4.28,6.71C4.86,39,4.73,39.4,4.61,39.86c-0.12,0.46-0.18,0.91-0.18,1.34
		c0,0.48,0.11,0.89,0.33,1.24c0.22,0.35,0.65,0.53,1.27,0.53c1.08,0,2.25-0.17,3.49-0.5c1.24-0.33,2.48-0.75,3.72-1.25
		c1.24-0.5,2.41-1.02,3.53-1.54c0.03-0.01,0.06-0.03,0.07-0.05c0.6-0.26,1.33-0.65,2.17-1.19c0.27-0.4,0.53-0.81,0.79-1.22
		c0.78-1.37,1.96-2.94,3.54-4.71c-0.94,0.46-2.06,0.98-3.36,1.54c-1.3,0.57-2.6,1.06-3.9,1.5s-2.37,0.65-3.22,0.65
		c-0.1,0-0.23-0.01-0.42-0.04c-0.18-0.02-0.35-0.06-0.49-0.12c-0.14-0.06-0.22-0.15-0.22-0.27v-0.07l0.02-0.05
		c0.06-0.13,0.16-0.22,0.3-0.27c0.13-0.06,0.25-0.09,0.35-0.09c0.24,0,0.35,0.09,0.33,0.26c0,0.05-0.01,0.1-0.02,0.17
		c0.64,0,1.58-0.22,2.83-0.65c1.25-0.43,2.5-0.91,3.75-1.45c1.25-0.53,2.24-0.99,2.95-1.38c0.42-0.22,0.81-0.44,1.17-0.65
		c0.43-0.26,0.81-0.47,1.15-0.63c0.33-0.17,0.6-0.25,0.79-0.25c0.19,0,0.3,0.13,0.33,0.38c0,0.16-0.05,0.37-0.14,0.65
		c-0.72,0.75-1.56,1.83-2.53,3.24c-0.97,1.41-1.94,2.97-2.89,4.69c-0.96,1.71-1.76,3.41-2.4,5.09c-0.65,1.68-0.97,3.15-0.97,4.41
		c0,0.48,0.06,0.91,0.17,1.29c0.01,0.06,0.05,0.13,0.1,0.22c0.06,0.11,0.1,0.22,0.1,0.33v0.07c-0.01,0.03-0.06,0.06-0.12,0.09
		c-0.06,0.02-0.12,0.04-0.18,0.05C16.79,51.21,16.74,51.22,16.71,51.22z"/>
	<path class="st4" d="M28.42,37.97c-0.73,0-1.13-0.31-1.19-0.93c0-0.13,0.02-0.26,0.07-0.38c0.05-0.13,0.11-0.25,0.19-0.36
		c-0.27-0.14-0.48-0.29-0.62-0.43s-0.22-0.33-0.22-0.58c0-0.26,0.07-0.58,0.22-0.96c0.4-0.97,0.91-1.67,1.54-2.09
		c0.63-0.42,1.25-0.67,1.85-0.75c0.6-0.08,1.04-0.12,1.29-0.12c0.51,0,0.87,0.14,1.09,0.42c0.22,0.28,0.32,0.63,0.32,1.04
		c0,0.46-0.1,0.96-0.31,1.48c-0.22,0.58-0.53,1.11-0.91,1.6c0.6,0,1.23-0.18,1.88-0.54s1.22-0.78,1.73-1.25
		c0.03-0.03,0.09-0.06,0.16-0.09c0.07-0.02,0.14-0.04,0.2-0.04c0.06,0,0.12,0.01,0.17,0.04c0.05,0.02,0.07,0.07,0.07,0.13
		c0,0.03-0.01,0.06-0.02,0.1c-0.08,0.17-0.37,0.43-0.88,0.76c-0.51,0.33-1.11,0.65-1.81,0.95c-0.69,0.3-1.34,0.44-1.93,0.44
		c-0.45,0.43-0.9,0.8-1.36,1.1C29.49,37.82,28.98,37.97,28.42,37.97z M28.62,37.28c0.33,0,0.76-0.26,1.27-0.76l-0.6,0.02
		c-0.33,0-0.61-0.03-0.84-0.1c-0.11,0.14-0.19,0.27-0.24,0.38c-0.01,0.05-0.02,0.09-0.02,0.12c0,0.1,0.04,0.17,0.11,0.24
		C28.36,37.25,28.47,37.28,28.62,37.28z M30.41,35.84c0.22-0.22,0.52-0.59,0.87-1.1c0.36-0.51,0.64-1.02,0.85-1.53
		c0.1-0.26,0.14-0.49,0.14-0.69c0-0.37-0.22-0.56-0.67-0.6c-0.35,0-0.8,0.26-1.34,0.76c-0.54,0.51-0.93,1.06-1.17,1.65
		c-0.08,0.21-0.12,0.41-0.12,0.6c0,0.26,0.11,0.47,0.32,0.65C29.51,35.76,29.88,35.84,30.41,35.84z"/>
	<path class="st4" d="M34.93,42.99c-0.42,0-0.71-0.17-0.88-0.5c-0.17-0.33-0.26-0.78-0.26-1.34c0-1.18,0.27-2.64,0.8-4.39
		c0.53-1.74,1.06-3.29,1.59-4.63c0.38-0.97,0.89-2.04,1.53-3.22c0.64-1.17,1.19-2.13,1.65-2.88c0.29-0.46,0.68-0.99,1.18-1.6
		c0.5-0.6,1.05-1.14,1.65-1.61c0.6-0.47,1.16-0.7,1.68-0.7c0.3,0,0.52,0.09,0.65,0.27c0.13,0.18,0.19,0.41,0.19,0.68
		c0,0.29-0.06,0.6-0.19,0.93c-0.72,1.9-1.77,3.87-3.17,5.91c-1.39,2.04-2.79,3.72-4.2,5.05l-0.07,0.22
		c-0.06,0.16-0.16,0.4-0.29,0.72c-0.35,0.85-0.75,1.9-1.21,3.16c-0.45,1.26-0.68,2.21-0.68,2.87c0,0.35,0.11,0.54,0.33,0.58
		c0.56,0,1.22-0.29,1.97-0.87c0.76-0.58,1.52-1.29,2.31-2.11c0.78-0.83,1.51-1.66,2.19-2.49c0.68-0.83,1.22-1.52,1.64-2.08
		c0.19-0.24,0.34-0.43,0.45-0.58c0.17-0.19,0.36-0.29,0.55-0.29c0.06,0,0.12,0.01,0.18,0.05c0.06,0.03,0.09,0.1,0.09,0.19
		c0,0.05-0.01,0.11-0.05,0.19c-0.03,0.1-0.1,0.22-0.19,0.36c-0.49,0.6-1.15,1.35-1.96,2.25c-0.81,0.89-1.68,1.79-2.62,2.69
		c-0.93,0.9-1.83,1.66-2.7,2.27C36.22,42.68,35.5,42.99,34.93,42.99z M37.68,33.6c0.48-0.32,1.13-1.04,1.96-2.17
		c0.83-1.13,1.63-2.35,2.4-3.65c0.77-1.3,1.33-2.37,1.66-3.22c0.16-0.43,0.24-0.76,0.24-0.98c0-0.21-0.08-0.32-0.24-0.33
		c-0.21,0-0.61,0.46-1.21,1.38c-0.6,0.92-1.24,2-1.93,3.25c-0.69,1.25-1.3,2.42-1.84,3.49C38.18,32.44,37.84,33.18,37.68,33.6z"/>
	<path class="st4" d="M46.74,42.59c-0.48,0-0.71-0.26-0.69-0.79c0-0.4,0.12-0.93,0.36-1.6c0.13-0.37,0.29-0.77,0.48-1.22
		c0.01-0.06,0.04-0.13,0.07-0.19c0.22-0.53,0.58-1.25,1.05-2.17c0.48-0.92,0.99-1.9,1.55-2.94c1.02-1.88,1.76-3.32,2.22-4.3
		c-0.35,0.58-0.81,1.29-1.39,2.14c-0.58,0.85-1.22,1.71-1.93,2.56c-0.71,0.85-1.43,1.57-2.16,2.15c-0.73,0.58-1.42,0.87-2.06,0.87
		c-0.27,0-0.53-0.07-0.78-0.22c-0.25-0.14-0.37-0.42-0.37-0.81c0-0.17,0.03-0.37,0.1-0.6l0.1-0.26c0.32-0.88,0.77-1.52,1.35-1.93
		c0.58-0.41,1.16-0.61,1.73-0.61c0.46,0,0.84,0.09,1.14,0.27c0.29,0.18,0.5,0.39,0.63,0.61c1.32-1.48,2.43-3.08,3.32-4.79
		c0.89-1.71,1.5-2.98,1.82-3.81c0.05-0.11,0.13-0.18,0.24-0.2c0.11-0.02,0.22-0.04,0.33-0.04c0.14,0,0.26,0.02,0.36,0.06
		c0.1,0.04,0.14,0.14,0.14,0.3c0,0.08-0.02,0.19-0.07,0.33l-0.22,0.72c-0.6,1.61-1.56,3.7-2.87,6.26c-1.32,2.55-2.3,4.66-2.92,6.31
		c-0.05,0.11-0.09,0.25-0.13,0.42c-0.04,0.17-0.06,0.33-0.06,0.49c0,0.14,0.03,0.26,0.1,0.36c0.06,0.1,0.17,0.14,0.33,0.14
		c0.38,0,0.91-0.38,1.58-1.15c0.67-0.76,1.35-1.6,2.03-2.51c0.51-0.67,0.97-1.25,1.39-1.74c0.42-0.49,0.74-0.8,0.98-0.91h0.02
		c0.05,0,0.09,0.01,0.12,0.05c0.03,0.03,0.05,0.09,0.05,0.17v0.07l-0.07,0.12c-0.13,0.19-0.52,0.71-1.16,1.57
		c-0.65,0.85-1.41,1.81-2.28,2.86c-0.88,1.05-1.73,1.98-2.56,2.77C47.8,42.19,47.17,42.59,46.74,42.59z M44.35,36.56
		c0.19,0,0.54-0.17,1.05-0.5c0.51-0.33,0.99-0.7,1.45-1.09c0.45-0.39,0.73-0.7,0.82-0.92c-0.1-0.16-0.24-0.24-0.43-0.24
		c-0.3,0-0.68,0.16-1.11,0.47c-0.44,0.31-0.84,0.66-1.19,1.04c-0.36,0.38-0.59,0.7-0.68,0.96c-0.01,0.03-0.02,0.06-0.02,0.1
		C44.23,36.47,44.26,36.53,44.35,36.56z"/>
	<path class="st4" d="M55.72,37.54h-0.17c-0.53,0-0.99-0.12-1.4-0.37s-0.61-0.62-0.61-1.11c0-0.21,0.05-0.43,0.14-0.67
		c0.29-0.67,0.81-1.33,1.58-1.98s1.52-1.05,2.27-1.19c0.05,0,0.1,0,0.17-0.01s0.12-0.02,0.17-0.04h0.17c0.35,0,0.64,0.06,0.86,0.19
		c0.22,0.13,0.33,0.31,0.33,0.55c0,0.1-0.01,0.2-0.05,0.31c-0.21,0.48-0.6,0.91-1.19,1.28c-0.59,0.37-1.14,0.56-1.65,0.56
		c-0.33,0-0.6-0.11-0.81-0.33c-0.14,0.19-0.26,0.42-0.36,0.69C55.06,35.69,55,35.94,55,36.18c0,0.22,0.07,0.42,0.2,0.58
		c0.13,0.16,0.36,0.24,0.68,0.24h0.12c2.06-0.16,3.67-1.08,4.83-2.75c0.06-0.1,0.13-0.16,0.22-0.19c0.08-0.03,0.17-0.06,0.26-0.07
		c0.19,0,0.34,0.06,0.45,0.17c-0.27,0.64-0.96,1.33-2.08,2.07C58.58,36.96,57.26,37.4,55.72,37.54z M55.77,34.41
		c0.19,0.17,0.41,0.26,0.65,0.26c0.27,0,0.53-0.11,0.79-0.33c0.26-0.22,0.45-0.55,0.6-0.98c0.01-0.05,0.02-0.09,0.02-0.12
		c0-0.08-0.05-0.12-0.14-0.12c-0.14,0-0.35,0.07-0.62,0.2c-0.27,0.14-0.53,0.3-0.78,0.5C56.04,34.03,55.87,34.22,55.77,34.41z"/>
	<path class="st4" d="M73.51,34.29c-0.42,0.59-1.06,1.44-1.93,2.53c-0.87,1.1-1.84,2.24-2.92,3.43c-1.08,1.19-2.16,2.2-3.24,3.05
		s-2.04,1.27-2.87,1.27c-0.14,0-0.29-0.01-0.43-0.05c-0.19-0.03-0.34-0.12-0.45-0.26c-0.11-0.14-0.17-0.36-0.17-0.65
		c0-0.4,0.13-0.95,0.38-1.65c0.67-1.55,1.58-3.09,2.75-4.64c1.13-1.51,2-2.98,2.6-4.4c0.03-0.08,0.05-0.14,0.05-0.19
		c0-0.1-0.06-0.14-0.17-0.14c-0.51,0-1.16,0.38-1.95,1.15c-0.79,0.76-1.55,1.56-2.28,2.39c-0.42,0.46-0.79,0.86-1.11,1.19
		c-0.33,0.33-0.58,0.54-0.75,0.62c-0.16,0.06-0.3,0.1-0.43,0.1c-0.26,0-0.43-0.11-0.54-0.32c-0.1-0.22-0.16-0.47-0.16-0.75
		c0-0.33,0.06-0.65,0.17-0.96c0.06-0.17,0.19-0.43,0.37-0.78c0.18-0.34,0.38-0.67,0.6-0.99c0.22-0.32,0.41-0.53,0.59-0.62
		c0.53-0.22,0.93-0.33,1.22-0.33c0.35,0,0.53,0.11,0.53,0.33c0,0.05-0.01,0.1-0.02,0.14l-0.05,0.1c-0.4,0.46-0.8,1-1.19,1.61
		c-0.4,0.61-0.68,1.11-0.84,1.5c-0.06,0.13-0.1,0.23-0.1,0.31s0.04,0.12,0.12,0.12c0.06,0,0.21-0.13,0.44-0.38
		c0.23-0.26,0.52-0.59,0.87-1.01c0.78-0.94,1.67-1.91,2.68-2.92c1.01-1.01,1.89-1.56,2.65-1.67c0.51,0,0.87,0.09,1.09,0.27
		c0.22,0.18,0.32,0.44,0.32,0.78c0,0.38-0.12,0.87-0.36,1.46c-0.29,0.73-0.73,1.55-1.31,2.45c-0.59,0.9-1.21,1.8-1.87,2.69
		c-0.65,0.91-1.22,1.74-1.71,2.49s-0.73,1.31-0.73,1.67c0,0.26,0.17,0.39,0.5,0.41c0.3,0,1.01-0.52,2.11-1.57
		c1.11-1.04,2.29-2.27,3.54-3.67c1.25-1.4,2.3-2.71,3.14-3.92c0.08-0.11,0.2-0.2,0.35-0.27c0.15-0.07,0.28-0.11,0.39-0.11
		c0.06,0,0.1,0.02,0.12,0.07c0,0.01-0.01,0.04-0.02,0.07L73.51,34.29L73.51,34.29z"/>
</g>
</svg>
