<?xml version="1.0" encoding="utf-8"?>
<!-- Generator: Adobe Illustrator 23.0.5, SVG Export Plug-In . SVG Version: 6.00 Build 0)  -->
<svg version="1.1" id="Capa_1" xmlns="http://www.w3.org/2000/svg" xmlns:xlink="http://www.w3.org/1999/xlink" x="0px" y="0px"
	 viewBox="0 0 4000 2000" style="enable-background:new 0 0 4000 2000;" xml:space="preserve">
<style type="text/css">
	.st0{fill:#EECE34;}
	.st1{fill:#F7F7F9;}
	.st2{font-family:'Poppins-ExtraBoldItalic';}
	.st3{font-size:173.3829px;}
	.st4{letter-spacing:25;}
	.st5{fill:#19192C;}
	.st6{fill:#FBFBFD;}
	.st7{font-family:'Arcon-Regular';}
	.st8{font-size:192.3548px;}
</style>
<g>
	<g>
		<g>
			<g>
				<polygon class="st0" points="3579.9,1883.4 2588.4,1887.4 2588.4,1874.1 3567.8,1870 3567.8,174.1 2626.7,172.9 2626.7,159.6 
					3579.9,160.8 				"/>
			</g>
		</g>
		<g>
			<g>
				<polygon class="st0" points="635.5,160.8 1686.5,160.8 1686.5,174.1 650.6,174.1 650.6,1870 1686.5,1870 1686.5,1883.4 
					635.5,1883.4 				"/>
			</g>
		</g>
	</g>
	<g>
		<g>
			<polygon class="st0" points="2162,88 2183.3,131.2 2231.1,138.2 2196.5,171.8 2204.7,219.4 2162,196.9 2119.3,219.4 
				2127.4,171.8 2092.9,138.2 2140.6,131.2 			"/>
			<g>
				<g>
					<polygon class="st0" points="2349.6,129.1 2364.1,158.5 2396.6,163.3 2373.1,186.2 2378.7,218.5 2349.6,203.3 2320.5,218.5 
						2326.1,186.2 2302.6,163.3 2335.1,158.5 					"/>
					<polygon class="st0" points="2492.4,146.1 2501.4,164.3 2521.5,167.3 2506.9,181.5 2510.4,201.6 2492.4,192.1 2474.3,201.6 
						2477.8,181.5 2463.2,167.3 2483.4,164.3 					"/>
				</g>
				<g>
					<polygon class="st0" points="1974.3,129.1 1959.8,158.5 1927.3,163.3 1950.8,186.2 1945.3,218.5 1974.3,203.3 2003.4,218.5 
						1997.8,186.2 2021.3,163.3 1988.8,158.5 					"/>
					<polygon class="st0" points="1831.6,146.1 1822.5,164.3 1802.4,167.3 1817,181.5 1813.5,201.6 1831.6,192.1 1849.6,201.6 
						1846.1,181.5 1860.7,167.3 1840.6,164.3 					"/>
				</g>
			</g>
		</g>
	</g>
	<g>
		<polygon class="st0" points="2144.3,1780.6 2165.6,1823.9 2213.4,1830.8 2178.8,1864.5 2187,1912 2144.3,1889.6 2101.6,1912 
			2109.7,1864.5 2075.2,1830.8 2122.9,1823.9 		"/>
		<g>
			<g>
				<polygon class="st0" points="2331.9,1821.8 2346.4,1851.2 2378.9,1855.9 2355.4,1878.8 2361,1911.2 2331.9,1895.9 
					2302.9,1911.2 2308.4,1878.8 2284.9,1855.9 2317.4,1851.2 				"/>
				<polygon class="st0" points="2474.7,1838.7 2483.7,1857 2503.8,1859.9 2489.3,1874.1 2492.7,1894.2 2474.7,1884.7 
					2456.7,1894.2 2460.1,1874.1 2445.5,1859.9 2465.7,1857 				"/>
			</g>
			<g>
				<polygon class="st0" points="1956.6,1821.8 1942.1,1851.2 1909.6,1855.9 1933.1,1878.8 1927.6,1911.2 1956.6,1895.9 
					1985.7,1911.2 1980.1,1878.8 2003.6,1855.9 1971.2,1851.2 				"/>
				<polygon class="st0" points="1813.9,1838.7 1804.9,1857 1784.7,1859.9 1799.3,1874.1 1795.8,1894.2 1813.9,1884.7 
					1831.9,1894.2 1828.4,1874.1 1843,1859.9 1822.9,1857 				"/>
			</g>
		</g>
	</g>
</g>
<g>
	<text transform="matrix(1 0 0 1 1896.6973 500.3623)" class="st1 st2 st3 st4">Apuestas</text>
</g>
<g>
	<g>
		<g>
			<path class="st5" d="M2147.1,1281.9c15.5,19.9,23.2,43,23.2,69.3c0,39-12.9,69.2-38.8,90.5c-25.8,21.4-62.9,32.1-111.2,32.1H1798
				v-449.9h217.3c45.3,0,80.8,10,106.4,29.9c25.6,19.9,38.4,48.7,38.4,86.4c0,26.7-7,49-21,67c-14,18-32.4,29.8-55.3,35.3
				C2110.6,1248.9,2131.7,1262,2147.1,1281.9z M1923.2,1203.8h62.9c31.3,0,47-13.1,47-39.4c0-27.1-15.9-40.7-47.7-40.7h-62.3V1203.8
				z M2042.6,1332.7c0-28-16.3-41.9-48.9-41.9h-70.5v82.6h70.5C2026.3,1373.4,2042.6,1359.9,2042.6,1332.7z"/>
			<path class="st5" d="M2572.6,1318.1h-235.7c2.1,40.3,19.7,60.4,52.7,60.4c12.3,0,22.4-3,30.5-8.9c8-5.9,13.6-13.8,16.5-23.5
				h132.2c-4.7,25-15,47.6-31.1,67.7c-16.1,20.1-36.4,35.9-61,47.3c-24.6,11.4-51.5,17.2-80.7,17.2c-35.6,0-67-7.3-94.4-21.9
				c-27.3-14.6-48.6-35.8-63.9-63.5c-15.3-27.7-22.9-60.3-22.9-97.5c0-37.3,7.6-69.7,22.9-97.2c15.2-27.5,36.6-48.6,64.2-63.2
				c27.5-14.6,58.9-21.9,94-21.9c35.6,0,66.9,7.2,94,21.6c27.1,14.4,48.2,35,63.2,61.6c15,26.7,22.6,57.6,22.6,92.8
				C2575.7,1297.8,2574.7,1307.5,2572.6,1318.1z M2434,1224.7c-10.2-9.3-22.9-14-38.1-14c-16.5,0-30,4.7-40.4,14
				c-10.4,9.3-16.4,23.1-18.1,41.3h111.2C2449.1,1247.8,2444.2,1234,2434,1224.7z"/>
			<path class="st5" d="M2848.3,1367.1v106.8h-51.5c-43.6,0-77.7-10.8-102.3-32.4c-24.6-21.6-36.9-57.4-36.9-107.4v-112.5H2612
				v-104.2h45.8v-86.4h125.2v86.4h64.2v104.2h-64.2v115c0,11,2.4,18.9,7.3,23.5c4.9,4.7,13,7,24.5,7H2848.3z"/>
		</g>
	</g>
	<g>
		<g>
			<path class="st6" d="M2123.6,1277.2c15.5,19.9,23.2,43,23.2,69.3c0,39-12.9,69.2-38.8,90.5c-25.8,21.4-62.9,32.1-111.2,32.1
				h-222.4v-449.9h217.3c45.3,0,80.8,10,106.4,29.9c25.6,19.9,38.4,48.7,38.4,86.4c0,26.7-7,49-21,67c-14,18-32.4,29.8-55.3,35.3
				C2087.1,1244.1,2108.1,1257.3,2123.6,1277.2z M1899.6,1199h62.9c31.3,0,47-13.1,47-39.4c0-27.1-15.9-40.7-47.7-40.7h-62.3V1199z
				 M2019.1,1328c0-28-16.3-41.9-48.9-41.9h-70.5v82.6h70.5C2002.8,1368.7,2019.1,1355.1,2019.1,1328z"/>
			<path class="st6" d="M2549,1313.4h-235.7c2.1,40.3,19.7,60.4,52.7,60.4c12.3,0,22.4-3,30.5-8.9c8-5.9,13.6-13.8,16.5-23.5h132.2
				c-4.7,25-15,47.6-31.1,67.7c-16.1,20.1-36.4,35.9-61,47.3c-24.6,11.4-51.5,17.2-80.7,17.2c-35.6,0-67-7.3-94.4-21.9
				c-27.3-14.6-48.6-35.8-63.9-63.5c-15.3-27.7-22.9-60.3-22.9-97.5c0-37.3,7.6-69.7,22.9-97.2c15.2-27.5,36.6-48.6,64.2-63.2
				c27.5-14.6,58.9-21.9,94-21.9c35.6,0,66.9,7.2,94,21.6c27.1,14.4,48.2,35,63.2,61.6c15,26.7,22.6,57.6,22.6,92.8
				C2552.2,1293.1,2551.1,1302.8,2549,1313.4z M2410.5,1220c-10.2-9.3-22.9-14-38.1-14c-16.5,0-30,4.7-40.4,14
				c-10.4,9.3-16.4,23.1-18.1,41.3h111.2C2425.5,1243.1,2420.7,1229.3,2410.5,1220z"/>
			<path class="st6" d="M2824.8,1362.3v106.8h-51.5c-43.6,0-77.7-10.8-102.3-32.4c-24.6-21.6-36.9-57.4-36.9-107.4v-112.5h-45.8
				v-104.2h45.8v-86.4h125.2v86.4h64.2v104.2h-64.2v115c0,11,2.4,18.9,7.3,23.5c4.9,4.7,13,7,24.5,7H2824.8z"/>
		</g>
	</g>
</g>
<path class="st0" d="M2853.4,1526.6l-25.2-205.7c-0.7-5.7,5.7-9.6,10.4-6.3l172.2,118.6l-69.1,13.1l39.5,65c3.2,5.2,1.5,12-3.8,15.1
	l-25.6,15.1c-5.1,3-11.8,1.4-14.9-3.7l-39.4-63.6L2853.4,1526.6z"/>
<g>
	<g>
		<path class="st0" d="M1457.1,1305.1c-13.8,0-23.5-5.7-29.3-17.1c-5.8-11.4-8.7-26.3-8.7-44.8c0-41.2,11-90.7,32.9-148.2
			c14.2-37.8,29.9-69.8,47-96c-7.3,3.4-14.6,6.9-21.9,10.3c-36.5,17.6-73.3,34.3-110.2,49.9c-37,15.7-74,28.7-111.2,39
			c-37.2,10.3-74.4,15.5-111.8,15.5c-19.3,0-38.5-2.3-57.4-6.8c-18.9-4.5-34.6-12.4-47-23.5c-12.5-11.2-18.7-26.2-18.7-45.1
			c0-8.6,1.5-18,4.5-28.4c20.2-61.9,61.4-128.3,123.7-199.4c62.3-71.1,134.4-138.8,216.2-203c81.8-64.2,162.3-117.1,241.3-158.5
			c79-41.5,143.5-62.2,193.3-62.2c15.9,0,27.2,3.9,33.8,11.6c6.7,7.7,10,18,10,30.9c0,16.3-4.3,35.7-12.9,58
			c-20.2,49.8-47.5,99.6-81.8,149.2c-34.4,49.6-59.5,81.7-75.4,96.3c-2.6,2.6-5.2,4.3-7.7,5.2c-2.6,0.9-5.6,1.3-9,1.3
			c-4.7,0-10-1.2-15.8-3.5c-5.8-2.4-11-5.3-15.5-8.7c-4.5-3.4-6.8-7.1-6.8-11c0-0.4,0.2-1.1,0.6-1.9c0.9-1.7,2.1-3.2,3.9-4.5
			c39.5-30.5,77.7-73.4,114.4-128.6c36.7-55.2,63-107.1,78.9-155.6c1.3-3.9,1.9-7.5,1.9-11c0-3-0.8-5.6-2.3-7.7
			c-1.5-2.1-4-3.2-7.4-3.2c-42.5,0-97,18.7-163.4,56.1c-66.4,37.4-134.2,85.1-203.3,143.1c-69.2,58-131,119.1-185.6,183.3
			c-54.6,64.2-93,124.5-115.4,180.8c-3.4,9-6.8,19.8-10,32.2c-3.2,12.5-4.8,24.5-4.8,36.1c0,12.9,3,24.1,9,33.5
			c6,9.4,17.4,14.2,34.2,14.2c29.2,0,60.6-4.5,94.1-13.5c33.5-9,66.9-20.3,100.2-33.8c33.3-13.5,65-27.4,95.1-41.6
			c0.9-0.4,1.5-0.9,1.9-1.3c16.3-6.9,35.9-17.6,58.6-32.2c7.3-10.7,14.4-21.7,21.3-32.9c21-36.9,52.8-79.3,95.4-127
			c-25.4,12.5-55.5,26.3-90.5,41.6c-35,15.3-70,28.7-105,40.3c-35,11.6-63.9,17.4-86.7,17.4c-2.6,0-6.3-0.3-11.3-1
			c-4.9-0.6-9.3-1.7-13.2-3.2c-3.9-1.5-5.8-4-5.8-7.4v-1.9l0.6-1.3c1.7-3.4,4.4-5.9,8.1-7.4c3.6-1.5,6.8-2.3,9.3-2.3
			c6.4,0,9.4,2.4,9,7.1c0,1.3-0.2,2.8-0.6,4.5c17.2,0,42.6-5.8,76.4-17.4c33.7-11.6,67.4-24.6,101.2-39
			c33.7-14.4,60.3-26.7,79.6-37.1c11.2-6,21.7-11.8,31.6-17.4c11.6-6.9,21.9-12.6,30.9-17.1c9-4.5,16.1-6.8,21.3-6.8
			c5.2,0,8.2,3.4,9,10.3c0,4.3-1.3,10.1-3.9,17.4c-19.3,20.2-42.1,49.3-68.3,87.3c-26.2,38-52.2,80.1-78,126.3
			c-25.8,46.2-47.4,91.9-64.8,137.3c-17.4,45.3-26.1,85-26.1,118.9c0,12.9,1.5,24.5,4.5,34.8c0.4,1.7,1.3,3.6,2.6,5.8
			c1.7,3,2.6,6,2.6,9v1.9c-0.4,0.9-1.5,1.6-3.2,2.3c-1.7,0.6-3.3,1.1-4.8,1.3C1459.1,1305,1457.9,1305.1,1457.1,1305.1z"/>
		<path class="st0" d="M1772.8,948.1c-19.8,0-30.5-8.4-32.2-25.1c0-3.4,0.6-6.9,1.9-10.3c1.3-3.4,3-6.7,5.2-9.7
			c-7.3-3.9-12.9-7.7-16.8-11.6c-3.9-3.9-5.8-9-5.8-15.5c0-6.9,1.9-15.5,5.8-25.8c10.7-26.2,24.6-45,41.6-56.4
			c17-11.4,33.6-18.1,49.9-20.3c16.3-2.1,27.9-3.2,34.8-3.2c13.7,0,23.5,3.8,29.3,11.3c5.8,7.5,8.7,16.9,8.7,28
			c0,12.5-2.8,25.8-8.4,40c-6,15.5-14.2,29.9-24.5,43.2c16.3,0,33.2-4.8,50.6-14.5c17.4-9.7,33-20.9,46.7-33.8
			c0.9-0.9,2.3-1.6,4.2-2.3c1.9-0.6,3.8-1,5.5-1c1.7,0,3.2,0.3,4.5,1c1.3,0.6,1.9,1.8,1.9,3.5c0,0.9-0.2,1.7-0.6,2.6
			c-2.2,4.7-10.1,11.6-23.8,20.6c-13.8,9-30,17.5-48.7,25.5c-18.7,8-36,11.9-51.9,11.9c-12,11.6-24.3,21.5-36.7,29.6
			C1801.6,944,1787.9,948.1,1772.8,948.1z M1778,929.4c9,0,20.4-6.9,34.2-20.6l-16.1,0.6c-9,0-16.5-0.9-22.6-2.6
			c-3,3.9-5.2,7.3-6.4,10.3c-0.4,1.3-0.6,2.4-0.6,3.2c0,2.6,1,4.7,2.9,6.4C1771.2,928.6,1774.1,929.4,1778,929.4z M1826.3,890.7
			c6-6,13.9-15.9,23.5-29.6c9.7-13.7,17.3-27.5,22.9-41.2c2.6-6.9,3.9-13.1,3.9-18.7c0-9.9-6-15.2-18-16.1
			c-9.5,0-21.5,6.9-36.1,20.6c-14.6,13.8-25.1,28.6-31.6,44.5c-2.2,5.6-3.2,11-3.2,16.1c0,6.9,2.9,12.7,8.7,17.4
			C1802.1,888.4,1812.1,890.7,1826.3,890.7z"/>
		<path class="st0" d="M1948.1,1083.4c-11.2,0-19.1-4.5-23.8-13.5c-4.7-9-7.1-21.1-7.1-36.1c0-31.8,7.2-71.2,21.6-118.3
			c14.4-47,28.7-88.6,42.9-124.7c10.3-26.2,24.1-55.1,41.2-86.7c17.2-31.6,32-57.5,44.5-77.7c7.7-12.5,18.4-26.8,31.9-43.2
			c13.5-16.3,28.4-30.8,44.5-43.5c16.1-12.7,31.3-19,45.4-19c8.2,0,14,2.5,17.4,7.4c3.4,4.9,5.2,11.1,5.2,18.4
			c0,7.7-1.7,16.1-5.2,25.1c-19.3,51.1-47.8,104.2-85.4,159.2c-37.6,55-75.3,100.3-113.1,136l-1.9,5.8c-1.7,4.3-4.3,10.7-7.7,19.3
			c-9.5,22.8-20.3,51.1-32.5,85.1c-12.2,33.9-18.4,59.7-18.4,77.3c0,9.4,3,14.6,9,15.5c15,0,32.8-7.8,53.2-23.5
			c20.4-15.7,41.1-34.7,62.2-57c21-22.3,40.7-44.7,59-67c18.3-22.3,33-41,44.1-56.1c5.2-6.4,9.2-11.6,12.2-15.5
			c4.7-5.2,9.7-7.7,14.8-7.7c1.7,0,3.3,0.4,4.8,1.3c1.5,0.9,2.3,2.6,2.3,5.2c0,1.3-0.4,3-1.3,5.2c-0.9,2.6-2.6,5.8-5.2,9.7
			c-13.3,16.3-30.9,36.5-52.8,60.6c-21.9,24.1-45.4,48.2-70.6,72.5c-25.1,24.3-49.4,44.7-72.8,61.2
			C1983,1075.1,1963.6,1083.4,1948.1,1083.4z M2022.2,830.2c12.9-8.6,30.5-28.1,52.8-58.6c22.3-30.5,43.9-63.3,64.8-98.3
			c20.8-35,35.8-63.9,44.8-86.7c4.3-11.6,6.4-20.4,6.4-26.4c0-5.6-2.2-8.6-6.4-9c-5.6,0-16.4,12.4-32.5,37.1
			c-16.1,24.7-33.4,53.9-51.9,87.6c-18.5,33.7-35,65.1-49.6,94.1C2035.9,798.9,2026.5,819,2022.2,830.2z"/>
		<path class="st0" d="M2266.4,1072.5c-12.9,0-19.1-7.1-18.7-21.3c0-10.7,3.2-25.1,9.7-43.2c3.4-9.9,7.7-20.8,12.9-32.9
			c0.4-1.7,1.1-3.4,1.9-5.2c6-14.2,15.5-33.7,28.4-58.6c12.9-24.9,26.8-51.3,41.9-79.3c27.5-50.7,47.5-89.4,59.9-116
			c-9.5,15.5-21.9,34.7-37.4,57.7c-15.5,23-32.8,46-51.9,69c-19.1,23-38.6,42.3-58.3,58c-19.8,15.7-38.2,23.5-55.4,23.5
			c-7.3,0-14.3-1.9-20.9-5.8c-6.7-3.9-10-11.2-10-21.9c0-4.7,0.9-10.1,2.6-16.1l2.6-7.1c8.6-23.6,20.7-40.9,36.4-51.9
			c15.7-11,31.3-16.4,46.7-16.4c12.5,0,22.7,2.5,30.6,7.4c7.9,4.9,13.6,10.4,17.1,16.4c35.7-40,65.5-83,89.6-129.2
			c24.1-46.2,40.4-80.4,49-102.8c1.3-3,3.4-4.8,6.4-5.5c3-0.6,6-1,9-1c3.9,0,7.1,0.5,9.7,1.6c2.6,1.1,3.9,3.8,3.9,8.1
			c0,2.2-0.6,5.2-1.9,9l-5.8,19.3c-16.3,43.4-42.1,99.7-77.3,168.8c-35.7,68.7-61.9,125.5-78.6,170.1c-1.3,3-2.5,6.8-3.5,11.3
			c-1.1,4.5-1.6,8.9-1.6,13.2c0,3.9,0.9,7.1,2.6,9.7c1.7,2.6,4.7,3.9,9,3.9c10.3,0,24.5-10.3,42.5-30.9c18-20.6,36.3-43.2,54.8-67.7
			c13.7-18,26.2-33.7,37.4-47c11.2-13.3,20-21.5,26.4-24.5h0.6c1.3,0,2.4,0.4,3.2,1.3c0.9,0.9,1.3,2.4,1.3,4.5v1.9l-1.9,3.2
			c-3.4,5.2-13.9,19.2-31.3,42.2c-17.4,23-37.9,48.7-61.5,77c-23.6,28.4-46.6,53.3-69,74.8C2295,1061.7,2278,1072.5,2266.4,1072.5z
			 M2202,910.1c5.2,0,14.6-4.5,28.4-13.5c13.7-9,26.7-18.8,39-29.3c12.2-10.5,19.7-18.8,22.2-24.8c-2.6-4.3-6.4-6.4-11.6-6.4
			c-8.2,0-18.2,4.2-30,12.6c-11.8,8.4-22.6,17.7-32.2,28c-9.7,10.3-15.8,18.9-18.4,25.8c-0.4,0.9-0.6,1.7-0.6,2.6
			C2198.8,907.5,2199.8,909.2,2202,910.1z"/>
		<path class="st0" d="M2508.7,936.5h-4.5c-14.2,0-26.7-3.3-37.7-10c-11-6.7-16.4-16.6-16.4-30c0-5.6,1.3-11.6,3.9-18
			c7.7-18,21.9-35.9,42.5-53.5c20.6-17.6,41-28.4,61.2-32.2c1.3,0,2.8-0.1,4.5-0.3c1.7-0.2,3.2-0.5,4.5-1h4.5
			c9.4,0,17.2,1.7,23.2,5.2c6,3.4,9,8.4,9,14.8c0,2.6-0.4,5.4-1.3,8.4c-5.6,12.9-16.3,24.4-32.2,34.5
			c-15.9,10.1-30.7,15.1-44.5,15.1c-9,0-16.3-3-21.9-9c-3.9,5.2-7.1,11.4-9.7,18.7c-3,7.3-4.5,14.2-4.5,20.6c0,6,1.8,11.2,5.5,15.5
			c3.6,4.3,9.8,6.4,18.4,6.4h3.2c55.4-4.3,98.8-29,130.2-74.1c1.7-2.6,3.6-4.3,5.8-5.2c2.1-0.9,4.5-1.5,7.1-1.9
			c5.2,0,9.2,1.5,12.2,4.5c-7.3,17.2-26,35.8-56.1,55.7C2585.6,920.7,2550,932.6,2508.7,936.5z M2510,852.1c5.2,4.7,11,7.1,17.4,7.1
			c7.3,0,14.4-3,21.3-9c6.9-6,12.2-14.8,16.1-26.4c0.4-1.3,0.6-2.4,0.6-3.2c0-2.1-1.3-3.2-3.9-3.2c-3.9,0-9.5,1.8-16.8,5.5
			c-7.3,3.7-14.3,8.2-20.9,13.5C2517.2,841.7,2512.6,846.9,2510,852.1z"/>
		<path class="st0" d="M2988.2,848.9c-11.2,15.9-28.5,38.7-51.9,68.3c-23.4,29.6-49.6,60.5-78.6,92.5c-29,32-58.1,59.4-87.3,82.2
			c-29.2,22.8-55,34.2-77.3,34.2c-3.9,0-7.7-0.4-11.6-1.3c-5.2-0.9-9.2-3.2-12.2-7.1c-3-3.9-4.5-9.7-4.5-17.4
			c0-10.7,3.4-25.6,10.3-44.5c18-41.7,42.7-83.4,74.1-125c30.5-40.8,53.9-80.3,70.2-118.6c0.9-2.1,1.3-3.9,1.3-5.2
			c0-2.6-1.5-3.9-4.5-3.9c-13.8,0-31.3,10.3-52.5,30.9c-21.3,20.6-41.8,42.1-61.5,64.4c-11.2,12.5-21.2,23.2-30,32.2
			c-8.8,9-15.6,14.6-20.3,16.8c-4.3,1.7-8.2,2.6-11.6,2.6c-6.9,0-11.7-2.9-14.5-8.7c-2.8-5.8-4.2-12.6-4.2-20.3
			c0-9,1.5-17.6,4.5-25.8c1.7-4.7,5-11.7,10-20.9c4.9-9.2,10.3-18.1,16.1-26.7c5.8-8.6,11.1-14.2,15.8-16.8c14.2-6,25.1-9,32.9-9
			c9.4,0,14.2,3,14.2,9c0,1.3-0.2,2.6-0.6,3.9l-1.3,2.6c-10.7,12.5-21.5,27-32.2,43.5c-10.7,16.5-18.3,30-22.6,40.3
			c-1.7,3.4-2.6,6.2-2.6,8.4c0,2.2,1.1,3.2,3.2,3.2c1.7,0,5.7-3.4,11.9-10.3c6.2-6.9,14.1-15.9,23.5-27.1
			c21-25.3,45.1-51.6,72.2-78.6c27.1-27.1,50.9-42.1,71.5-45.1c13.7,0,23.5,2.5,29.3,7.4c5.8,4.9,8.7,11.9,8.7,20.9
			c0,10.3-3.2,23.4-9.7,39.3c-7.7,19.8-19.6,41.8-35.4,66.1c-15.9,24.3-32.7,48.4-50.3,72.5c-17.6,24.5-33,46.8-46.1,67
			c-13.1,20.2-19.7,35.2-19.7,45.1c0,6.9,4.5,10.5,13.5,11c8.2,0,27.2-14.1,57-42.2c29.9-28.1,61.6-61.1,95.4-98.9
			c33.7-37.8,62-73,84.7-105.7c2.1-3,5.3-5.5,9.3-7.4c4.1-1.9,7.6-2.9,10.6-2.9c1.7,0,2.8,0.6,3.2,1.9c0,0.4-0.2,1.1-0.6,1.9V848.9z
			"/>
	</g>
	<g>
		<path class="st0" d="M1457.1,1305.1c-13.8,0-23.5-5.7-29.3-17.1c-5.8-11.4-8.7-26.3-8.7-44.8c0-41.2,11-90.7,32.9-148.2
			c14.2-37.8,29.9-69.8,47-96c-7.3,3.4-14.6,6.9-21.9,10.3c-36.5,17.6-73.3,34.3-110.2,49.9c-37,15.7-74,28.7-111.2,39
			c-37.2,10.3-74.4,15.5-111.8,15.5c-19.3,0-38.5-2.3-57.4-6.8c-18.9-4.5-34.6-12.4-47-23.5c-12.5-11.2-18.7-26.2-18.7-45.1
			c0-8.6,1.5-18,4.5-28.4c20.2-61.9,61.4-128.3,123.7-199.4c62.3-71.1,134.4-138.8,216.2-203c81.8-64.2,162.3-117.1,241.3-158.5
			c79-41.5,143.5-62.2,193.3-62.2c15.9,0,27.2,3.9,33.8,11.6c6.7,7.7,10,18,10,30.9c0,16.3-4.3,35.7-12.9,58
			c-20.2,49.8-47.5,99.6-81.8,149.2c-34.4,49.6-59.5,81.7-75.4,96.3c-2.6,2.6-5.2,4.3-7.7,5.2c-2.6,0.9-5.6,1.3-9,1.3
			c-4.7,0-10-1.2-15.8-3.5c-5.8-2.4-11-5.3-15.5-8.7c-4.5-3.4-6.8-7.1-6.8-11c0-0.4,0.2-1.1,0.6-1.9c0.9-1.7,2.1-3.2,3.9-4.5
			c39.5-30.5,77.7-73.4,114.4-128.6c36.7-55.2,63-107.1,78.9-155.6c1.3-3.9,1.9-7.5,1.9-11c0-3-0.8-5.6-2.3-7.7
			c-1.5-2.1-4-3.2-7.4-3.2c-42.5,0-97,18.7-163.4,56.1c-66.4,37.4-134.2,85.1-203.3,143.1c-69.2,58-131,119.1-185.6,183.3
			c-54.6,64.2-93,124.5-115.4,180.8c-3.4,9-6.8,19.8-10,32.2c-3.2,12.5-4.8,24.5-4.8,36.1c0,12.9,3,24.1,9,33.5
			c6,9.4,17.4,14.2,34.2,14.2c29.2,0,60.6-4.5,94.1-13.5c33.5-9,66.9-20.3,100.2-33.8c33.3-13.5,65-27.4,95.1-41.6
			c0.9-0.4,1.5-0.9,1.9-1.3c16.3-6.9,35.9-17.6,58.6-32.2c7.3-10.7,14.4-21.7,21.3-32.9c21-36.9,52.8-79.3,95.4-127
			c-25.4,12.5-55.5,26.3-90.5,41.6c-35,15.3-70,28.7-105,40.3c-35,11.6-63.9,17.4-86.7,17.4c-2.6,0-6.3-0.3-11.3-1
			c-4.9-0.6-9.3-1.7-13.2-3.2c-3.9-1.5-5.8-4-5.8-7.4v-1.9l0.6-1.3c1.7-3.4,4.4-5.9,8.1-7.4c3.6-1.5,6.8-2.3,9.3-2.3
			c6.4,0,9.4,2.4,9,7.1c0,1.3-0.2,2.8-0.6,4.5c17.2,0,42.6-5.8,76.4-17.4c33.7-11.6,67.4-24.6,101.2-39
			c33.7-14.4,60.3-26.7,79.6-37.1c11.2-6,21.7-11.8,31.6-17.4c11.6-6.9,21.9-12.6,30.9-17.1c9-4.5,16.1-6.8,21.3-6.8
			c5.2,0,8.2,3.4,9,10.3c0,4.3-1.3,10.1-3.9,17.4c-19.3,20.2-42.1,49.3-68.3,87.3c-26.2,38-52.2,80.1-78,126.3
			c-25.8,46.2-47.4,91.9-64.8,137.3c-17.4,45.3-26.1,85-26.1,118.9c0,12.9,1.5,24.5,4.5,34.8c0.4,1.7,1.3,3.6,2.6,5.8
			c1.7,3,2.6,6,2.6,9v1.9c-0.4,0.9-1.5,1.6-3.2,2.3c-1.7,0.6-3.3,1.1-4.8,1.3C1459.1,1305,1457.9,1305.1,1457.1,1305.1z"/>
		<path class="st0" d="M1772.8,948.1c-19.8,0-30.5-8.4-32.2-25.1c0-3.4,0.6-6.9,1.9-10.3c1.3-3.4,3-6.7,5.2-9.7
			c-7.3-3.9-12.9-7.7-16.8-11.6c-3.9-3.9-5.8-9-5.8-15.5c0-6.9,1.9-15.5,5.8-25.8c10.7-26.2,24.6-45,41.6-56.4
			c17-11.4,33.6-18.1,49.9-20.3c16.3-2.1,27.9-3.2,34.8-3.2c13.7,0,23.5,3.8,29.3,11.3c5.8,7.5,8.7,16.9,8.7,28
			c0,12.5-2.8,25.8-8.4,40c-6,15.5-14.2,29.9-24.5,43.2c16.3,0,33.2-4.8,50.6-14.5c17.4-9.7,33-20.9,46.7-33.8
			c0.9-0.9,2.3-1.6,4.2-2.3c1.9-0.6,3.8-1,5.5-1c1.7,0,3.2,0.3,4.5,1c1.3,0.6,1.9,1.8,1.9,3.5c0,0.9-0.2,1.7-0.6,2.6
			c-2.2,4.7-10.1,11.6-23.8,20.6c-13.8,9-30,17.5-48.7,25.5c-18.7,8-36,11.9-51.9,11.9c-12,11.6-24.3,21.5-36.7,29.6
			C1801.6,944,1787.9,948.1,1772.8,948.1z M1778,929.4c9,0,20.4-6.9,34.2-20.6l-16.1,0.6c-9,0-16.5-0.9-22.6-2.6
			c-3,3.9-5.2,7.3-6.4,10.3c-0.4,1.3-0.6,2.4-0.6,3.2c0,2.6,1,4.7,2.9,6.4C1771.2,928.6,1774.1,929.4,1778,929.4z M1826.3,890.7
			c6-6,13.9-15.9,23.5-29.6c9.7-13.7,17.3-27.5,22.9-41.2c2.6-6.9,3.9-13.1,3.9-18.7c0-9.9-6-15.2-18-16.1
			c-9.5,0-21.5,6.9-36.1,20.6c-14.6,13.8-25.1,28.6-31.6,44.5c-2.2,5.6-3.2,11-3.2,16.1c0,6.9,2.9,12.7,8.7,17.4
			C1802.1,888.4,1812.1,890.7,1826.3,890.7z"/>
		<path class="st0" d="M1948.1,1083.4c-11.2,0-19.1-4.5-23.8-13.5c-4.7-9-7.1-21.1-7.1-36.1c0-31.8,7.2-71.2,21.6-118.3
			c14.4-47,28.7-88.6,42.9-124.7c10.3-26.2,24.1-55.1,41.2-86.7c17.2-31.6,32-57.5,44.5-77.7c7.7-12.5,18.4-26.8,31.9-43.2
			c13.5-16.3,28.4-30.8,44.5-43.5c16.1-12.7,31.3-19,45.4-19c8.2,0,14,2.5,17.4,7.4c3.4,4.9,5.2,11.1,5.2,18.4
			c0,7.7-1.7,16.1-5.2,25.1c-19.3,51.1-47.8,104.2-85.4,159.2c-37.6,55-75.3,100.3-113.1,136l-1.9,5.8c-1.7,4.3-4.3,10.7-7.7,19.3
			c-9.5,22.8-20.3,51.1-32.5,85.1c-12.2,33.9-18.4,59.7-18.4,77.3c0,9.4,3,14.6,9,15.5c15,0,32.8-7.8,53.2-23.5
			c20.4-15.7,41.1-34.7,62.2-57c21-22.3,40.7-44.7,59-67c18.3-22.3,33-41,44.1-56.1c5.2-6.4,9.2-11.6,12.2-15.5
			c4.7-5.2,9.7-7.7,14.8-7.7c1.7,0,3.3,0.4,4.8,1.3c1.5,0.9,2.3,2.6,2.3,5.2c0,1.3-0.4,3-1.3,5.2c-0.9,2.6-2.6,5.8-5.2,9.7
			c-13.3,16.3-30.9,36.5-52.8,60.6c-21.9,24.1-45.4,48.2-70.6,72.5c-25.1,24.3-49.4,44.7-72.8,61.2
			C1983,1075.1,1963.6,1083.4,1948.1,1083.4z M2022.2,830.2c12.9-8.6,30.5-28.1,52.8-58.6c22.3-30.5,43.9-63.3,64.8-98.3
			c20.8-35,35.8-63.9,44.8-86.7c4.3-11.6,6.4-20.4,6.4-26.4c0-5.6-2.2-8.6-6.4-9c-5.6,0-16.4,12.4-32.5,37.1
			c-16.1,24.7-33.4,53.9-51.9,87.6c-18.5,33.7-35,65.1-49.6,94.1C2035.9,798.9,2026.5,819,2022.2,830.2z"/>
		<path class="st0" d="M2266.4,1072.5c-12.9,0-19.1-7.1-18.7-21.3c0-10.7,3.2-25.1,9.7-43.2c3.4-9.9,7.7-20.8,12.9-32.9
			c0.4-1.7,1.1-3.4,1.9-5.2c6-14.2,15.5-33.7,28.4-58.6c12.9-24.9,26.8-51.3,41.9-79.3c27.5-50.7,47.5-89.4,59.9-116
			c-9.5,15.5-21.9,34.7-37.4,57.7c-15.5,23-32.8,46-51.9,69c-19.1,23-38.6,42.3-58.3,58c-19.8,15.7-38.2,23.5-55.4,23.5
			c-7.3,0-14.3-1.9-20.9-5.8c-6.7-3.9-10-11.2-10-21.9c0-4.7,0.9-10.1,2.6-16.1l2.6-7.1c8.6-23.6,20.7-40.9,36.4-51.9
			c15.7-11,31.3-16.4,46.7-16.4c12.5,0,22.7,2.5,30.6,7.4c7.9,4.9,13.6,10.4,17.1,16.4c35.7-40,65.5-83,89.6-129.2
			c24.1-46.2,40.4-80.4,49-102.8c1.3-3,3.4-4.8,6.4-5.5c3-0.6,6-1,9-1c3.9,0,7.1,0.5,9.7,1.6c2.6,1.1,3.9,3.8,3.9,8.1
			c0,2.2-0.6,5.2-1.9,9l-5.8,19.3c-16.3,43.4-42.1,99.7-77.3,168.8c-35.7,68.7-61.9,125.5-78.6,170.1c-1.3,3-2.5,6.8-3.5,11.3
			c-1.1,4.5-1.6,8.9-1.6,13.2c0,3.9,0.9,7.1,2.6,9.7c1.7,2.6,4.7,3.9,9,3.9c10.3,0,24.5-10.3,42.5-30.9c18-20.6,36.3-43.2,54.8-67.7
			c13.7-18,26.2-33.7,37.4-47c11.2-13.3,20-21.5,26.4-24.5h0.6c1.3,0,2.4,0.4,3.2,1.3c0.9,0.9,1.3,2.4,1.3,4.5v1.9l-1.9,3.2
			c-3.4,5.2-13.9,19.2-31.3,42.2c-17.4,23-37.9,48.7-61.5,77c-23.6,28.4-46.6,53.3-69,74.8C2295,1061.7,2278,1072.5,2266.4,1072.5z
			 M2202,910.1c5.2,0,14.6-4.5,28.4-13.5c13.7-9,26.7-18.8,39-29.3c12.2-10.5,19.7-18.8,22.2-24.8c-2.6-4.3-6.4-6.4-11.6-6.4
			c-8.2,0-18.2,4.2-30,12.6c-11.8,8.4-22.6,17.7-32.2,28c-9.7,10.3-15.8,18.9-18.4,25.8c-0.4,0.9-0.6,1.7-0.6,2.6
			C2198.8,907.5,2199.8,909.2,2202,910.1z"/>
		<path class="st0" d="M2508.7,936.5h-4.5c-14.2,0-26.7-3.3-37.7-10c-11-6.7-16.4-16.6-16.4-30c0-5.6,1.3-11.6,3.9-18
			c7.7-18,21.9-35.9,42.5-53.5c20.6-17.6,41-28.4,61.2-32.2c1.3,0,2.8-0.1,4.5-0.3c1.7-0.2,3.2-0.5,4.5-1h4.5
			c9.4,0,17.2,1.7,23.2,5.2c6,3.4,9,8.4,9,14.8c0,2.6-0.4,5.4-1.3,8.4c-5.6,12.9-16.3,24.4-32.2,34.5
			c-15.9,10.1-30.7,15.1-44.5,15.1c-9,0-16.3-3-21.9-9c-3.9,5.2-7.1,11.4-9.7,18.7c-3,7.3-4.5,14.2-4.5,20.6c0,6,1.8,11.2,5.5,15.5
			c3.6,4.3,9.8,6.4,18.4,6.4h3.2c55.4-4.3,98.8-29,130.2-74.1c1.7-2.6,3.6-4.3,5.8-5.2c2.1-0.9,4.5-1.5,7.1-1.9
			c5.2,0,9.2,1.5,12.2,4.5c-7.3,17.2-26,35.8-56.1,55.7C2585.6,920.7,2550,932.6,2508.7,936.5z M2510,852.1c5.2,4.7,11,7.1,17.4,7.1
			c7.3,0,14.4-3,21.3-9c6.9-6,12.2-14.8,16.1-26.4c0.4-1.3,0.6-2.4,0.6-3.2c0-2.1-1.3-3.2-3.9-3.2c-3.9,0-9.5,1.8-16.8,5.5
			c-7.3,3.7-14.3,8.2-20.9,13.5C2517.2,841.7,2512.6,846.9,2510,852.1z"/>
		<path class="st0" d="M2988.2,848.9c-11.2,15.9-28.5,38.7-51.9,68.3c-23.4,29.6-49.6,60.5-78.6,92.5c-29,32-58.1,59.4-87.3,82.2
			c-29.2,22.8-55,34.2-77.3,34.2c-3.9,0-7.7-0.4-11.6-1.3c-5.2-0.9-9.2-3.2-12.2-7.1c-3-3.9-4.5-9.7-4.5-17.4
			c0-10.7,3.4-25.6,10.3-44.5c18-41.7,42.7-83.4,74.1-125c30.5-40.8,53.9-80.3,70.2-118.6c0.9-2.1,1.3-3.9,1.3-5.2
			c0-2.6-1.5-3.9-4.5-3.9c-13.8,0-31.3,10.3-52.5,30.9c-21.3,20.6-41.8,42.1-61.5,64.4c-11.2,12.5-21.2,23.2-30,32.2
			c-8.8,9-15.6,14.6-20.3,16.8c-4.3,1.7-8.2,2.6-11.6,2.6c-6.9,0-11.7-2.9-14.5-8.7c-2.8-5.8-4.2-12.6-4.2-20.3
			c0-9,1.5-17.6,4.5-25.8c1.7-4.7,5-11.7,10-20.9c4.9-9.2,10.3-18.1,16.1-26.7c5.8-8.6,11.1-14.2,15.8-16.8c14.2-6,25.1-9,32.9-9
			c9.4,0,14.2,3,14.2,9c0,1.3-0.2,2.6-0.6,3.9l-1.3,2.6c-10.7,12.5-21.5,27-32.2,43.5c-10.7,16.5-18.3,30-22.6,40.3
			c-1.7,3.4-2.6,6.2-2.6,8.4c0,2.2,1.1,3.2,3.2,3.2c1.7,0,5.7-3.4,11.9-10.3c6.2-6.9,14.1-15.9,23.5-27.1
			c21-25.3,45.1-51.6,72.2-78.6c27.1-27.1,50.9-42.1,71.5-45.1c13.7,0,23.5,2.5,29.3,7.4c5.8,4.9,8.7,11.9,8.7,20.9
			c0,10.3-3.2,23.4-9.7,39.3c-7.7,19.8-19.6,41.8-35.4,66.1c-15.9,24.3-32.7,48.4-50.3,72.5c-17.6,24.5-33,46.8-46.1,67
			c-13.1,20.2-19.7,35.2-19.7,45.1c0,6.9,4.5,10.5,13.5,11c8.2,0,27.2-14.1,57-42.2c29.9-28.1,61.6-61.1,95.4-98.9
			c33.7-37.8,62-73,84.7-105.7c2.1-3,5.3-5.5,9.3-7.4c4.1-1.9,7.6-2.9,10.6-2.9c1.7,0,2.8,0.6,3.2,1.9c0,0.4-0.2,1.1-0.6,1.9V848.9z
			"/>
	</g>
</g>
<g>
	<text transform="matrix(1 0 0 1 1494.7817 1712.2275)"><tspan x="0" y="0" class="st6 st7 st8">Casino</tspan><tspan x="574.9" y="0" class="st5 st7 st8"> </tspan><tspan x="632.1" y="0" class="st0 st7 st8">Online </tspan></text>
</g>
</svg>
